<svg width="24" height="24" viewBox="0 0 24 24" fill="none" xmlns="http://www.w3.org/2000/svg">
<path fill-rule="evenodd" clip-rule="evenodd" d="M1.29291 2.70718L8.01286 9.42713C8.03346 9.76862 8.07873 10.1062 8.14802 10.4379L2.00001 16.5859V22.0001H9.00001V20.0001H11V18.0001H13V16.0001H14.5858L21.2929 22.7072L22.7071 21.293L2.70712 1.29297L1.29291 2.70718ZM10 11.4143L12.5858 14.0001H11V16.0001H9.00001V18.0001H7.00001V20.0001H4.00001V17.4143L10 11.4143ZM9.23812 5.02396C10.5012 3.19702 12.6108 2.00008 15 2.00008C18.866 2.00008 22 5.13408 22 9.00008C22 11.3892 20.8031 13.4989 18.9761 14.762L17.5286 13.3145C19.0073 12.446 20 10.8389 20 9.00008C20 6.23865 17.7614 4.00008 15 4.00008C13.1611 4.00008 11.5541 4.99275 10.6856 6.47146L9.23812 5.02396ZM15 7.00008C13.9643 7.00008 13.1125 7.78736 13.0103 8.79613L15.204 10.9898C16.2127 10.8876 17 10.0358 17 9.00008C17 7.89551 16.1046 7.00008 15 7.00008Z" fill="black"/>
</svg>
