<svg width="24" height="24" viewBox="0 0 24 24" fill="none" xmlns="http://www.w3.org/2000/svg">
<path fill-rule="evenodd" clip-rule="evenodd" d="M2.41421 1.29297L1 2.70718L7 8.70718V10.0001H6C4.93165 10.0001 4 10.7764 4 11.8334V20.1667C4 21.2237 4.93165 22.0001 6 22.0001H18C18.6301 22.0001 19.2126 21.73 19.5845 21.2917L21 22.7072L22.4142 21.293L2.41421 1.29297ZM18 19.7072L10.2929 12.0001H6V20.0001H18V19.7072ZM18 14.0788L20 16.0788V11.8334C20 10.7764 19.0684 10.0001 18 10.0001H17V7.00008C17 4.23865 14.7614 2.00008 12 2.00008C10.3441 2.00008 8.87619 2.80505 7.96627 4.04502L9.40869 5.48745C9.92918 4.59771 10.8948 4.00008 12 4.00008C13.6569 4.00008 15 5.34322 15 7.00008V10.0001H13.9213L15.9213 12.0001H18V14.0788ZM12 17.0001C11.4477 17.0001 11 16.5524 11 16.0001C11 15.4478 11.4477 15.0001 12 15.0001C12.5523 15.0001 13 15.4478 13 16.0001C13 16.5524 12.5523 17.0001 12 17.0001Z" fill="black"/>
</svg>
