<svg width="24" height="24" viewBox="0 0 24 24" fill="none" xmlns="http://www.w3.org/2000/svg">
<path fill-rule="evenodd" clip-rule="evenodd" d="M3.89126 2.56641L5.36557 3.91786C3.89657 5.51955 3 7.65478 3 9.99942C3 12.3441 3.89657 14.4793 5.36557 16.081L3.89126 17.4324C2.09581 15.4748 1 12.8651 1 9.99942C1 7.13375 2.09581 4.52402 3.89126 2.56641ZM20.1087 2.56674C21.9042 4.52435 23 7.13408 23 9.99975C23 12.8654 21.9042 15.4751 20.1087 17.4328L18.6344 16.0813C20.1034 14.4796 21 12.3444 21 9.99975C21 7.65511 20.1034 5.51988 18.6344 3.91819L20.1087 2.56674ZM8.72076 21.9998L9.38743 19.9998H14.6126L15.2792 21.9998H17.3874L14.1012 12.141C14.6559 11.5966 15 10.8384 15 9.99975C15 8.3429 13.6569 6.99975 12 6.99975C10.3431 6.99975 9 8.3429 9 9.99975C9 10.8384 9.3441 11.5966 9.89882 12.141L6.61257 21.9998H8.72076ZM10.0541 17.9998L10.7208 15.9998H13.2792L13.9459 17.9998H10.0541ZM12.6126 13.9998L12.2751 12.9873C12.1845 12.9955 12.0927 12.9998 12 12.9998C11.9073 12.9997 11.8155 12.9955 11.7249 12.9873L11.3874 13.9998H12.6126ZM13 9.99975C13 10.552 12.5523 10.9998 12 10.9998C11.4477 10.9998 11 10.552 11 9.99975C11 9.44746 11.4477 8.99975 12 8.99975C12.5523 8.99975 13 9.44746 13 9.99975ZM19 9.99975C19 8.17614 18.3027 6.51541 17.1601 5.26965L15.6858 6.62111C16.5019 7.51093 17 8.69717 17 9.99975C17 11.3023 16.5019 12.4886 15.6858 13.3784L17.1601 14.7298C18.3027 13.4841 19 11.8234 19 9.99975ZM8.31421 6.62078L6.83989 5.26932C5.69733 6.51508 5 8.17581 5 9.99942C5 11.823 5.69733 13.4838 6.83989 14.7295L8.31421 13.3781C7.4981 12.4882 7 11.302 7 9.99942C7 8.69684 7.4981 7.5106 8.31421 6.62078Z" fill="black"/>
</svg>
