<svg width="24" height="24" viewBox="0 0 24 24" fill="none" xmlns="http://www.w3.org/2000/svg">
<path fill-rule="evenodd" clip-rule="evenodd" d="M2.70712 1.29297L1.29291 2.70718L5.28383 6.6981C4.13192 7.32522 3.04946 8.12605 2.07493 9.10058C2.04984 9.12567 2.02487 9.15082 2.00001 9.17605L3.41427 10.5903C3.4391 10.5651 3.46405 10.5399 3.48914 10.5148C4.4724 9.53154 5.58383 8.75459 6.76966 8.18393L8.2454 9.65967C6.97244 10.1466 5.77897 10.903 4.75297 11.929L6.16718 13.3432C7.21927 12.2911 8.49148 11.5933 9.83557 11.2498L11.5903 13.0046C10.1336 13.061 8.69352 13.6453 7.5814 14.7574L8.99561 16.1716C10.5577 14.6096 13.0904 14.6096 14.6525 16.1716L14.7049 16.1192L21.2929 22.7072L22.7071 21.293L2.70712 1.29297ZM13.3272 9.11303L17.5191 13.305L18.8951 11.929C17.3259 10.3598 15.365 9.42118 13.3272 9.11303ZM9.44358 5.22943L11.2368 7.02263C14.516 6.82191 17.8619 7.96101 20.3842 10.4399L21.7984 9.02567C18.4243 5.70136 13.7827 4.43594 9.44358 5.22943ZM13.2382 17.5859C12.4572 16.8048 11.1909 16.8048 10.4098 17.5859L11.824 19.0001L13.2382 17.5859Z" fill="black"/>
</svg>
