<svg width="24" height="24" viewBox="0 0 24 24" fill="none" xmlns="http://www.w3.org/2000/svg">
<path fill-rule="evenodd" clip-rule="evenodd" d="M10 3.58594L18.4142 12.0002L10 20.4144V15.834C7.95556 15.609 5.87631 16.5381 3.70711 18.7073L2 20.4144V18.0002C2 11.8508 4.73892 8.41304 10 8.03508V3.58594ZM12 8.41436V10.0002H11C6.97795 10.0002 4.75046 11.8101 4.1604 15.6826C6.47384 14.0019 8.84725 13.4312 11.2425 14.03L12 14.2194V15.5859L15.5858 12.0002L12 8.41436ZM14 3.58594V6.58594L19.4142 12.0002L14 17.4144V20.4144L22.4142 12.0002L14 3.58594Z" fill="black"/>
<mask id="mask0_7_1934" style="mask-type:alpha" maskUnits="userSpaceOnUse" x="2" y="3" width="21" height="18">
<path fill-rule="evenodd" clip-rule="evenodd" d="M10 3.58594L18.4142 12.0002L10 20.4144V15.834C7.95556 15.609 5.87631 16.5381 3.70711 18.7073L2 20.4144V18.0002C2 11.8508 4.73892 8.41304 10 8.03508V3.58594ZM12 8.41436V10.0002H11C6.97795 10.0002 4.75046 11.8101 4.1604 15.6826C6.47384 14.0019 8.84725 13.4312 11.2425 14.03L12 14.2194V15.5859L15.5858 12.0002L12 8.41436ZM14 3.58594V6.58594L19.4142 12.0002L14 17.4144V20.4144L22.4142 12.0002L14 3.58594Z" fill="white"/>
</mask>
<g mask="url(#mask0_7_1934)">
</g>
</svg>
