<svg width="24" height="24" viewBox="0 0 24 24" fill="none" xmlns="http://www.w3.org/2000/svg">
<path fill-rule="evenodd" clip-rule="evenodd" d="M4.58582 12.0002L10 6.58594V3.58594L1.58582 12.0002L10 20.4144V17.4144L4.58582 12.0002ZM14 15.834V20.4144L5.58582 12.0002L14 3.58594V8.03508C19.2611 8.41304 22 11.8508 22 18.0002V20.4144L20.2929 18.7073C18.1237 16.5381 16.0445 15.609 14 15.834ZM12 8.41436L8.41424 12.0002L12 15.5859V14.2194L12.7575 14.03C15.1528 13.4312 17.5262 14.0019 19.8396 15.6826C19.2496 11.8101 17.0221 10.0002 13 10.0002H12V8.41436Z" fill="black"/>
</svg>
