<svg width="24" height="24" viewBox="0 0 24 24" fill="none" xmlns="http://www.w3.org/2000/svg">
<path fill-rule="evenodd" clip-rule="evenodd" d="M21 19.0002V5.58594L16.997 9.58897C16.5054 9.10866 16.2089 8.84221 15.8469 8.55262C14.4746 7.4548 13.1107 7.00015 11 7.00015C7.1135 7.00015 3 10.1788 3 14.0002V16.4144L4.70711 14.7073C4.74835 14.666 4.84457 14.5777 4.98913 14.458C5.23811 14.252 5.52307 14.0447 5.8366 13.8518C6.70743 13.3159 7.61525 13.0002 8.5 13.0002C10.0608 13.0002 10.8358 13.4482 11.7393 14.8466L7.58579 19.0002H21ZM16.2929 11.7073L17 12.4144L19 10.4144V17.0002H12.4142L14.2472 15.1672L13.8682 14.504C12.4541 12.0292 11.117 11.0002 8.5 11.0002C7.60743 11.0002 6.74036 11.204 5.90962 11.562C7.0466 10.0763 9.07763 9.00015 11 9.00015C12.6671 9.00015 13.5889 9.30741 14.5975 10.1144C15.0265 10.4575 15.3765 10.7908 16.2929 11.7073Z" fill="black"/>
</svg>
