<svg width="24" height="24" viewBox="0 0 24 24" fill="none" xmlns="http://www.w3.org/2000/svg">
<path fill-rule="evenodd" clip-rule="evenodd" d="M19.5858 13.0002H13V19.5859L15.2929 17.293L16.7071 18.7073L12 23.4144L7.29289 18.7073L8.70711 17.293L11 19.5859V13.0002H4.41421L6.70711 15.293L5.29289 16.7073L0.585785 12.0002L5.29289 7.29304L6.70711 8.70726L4.41421 11.0002H11V4.41436L8.70711 6.70726L7.29289 5.29304L12 0.585938L16.7071 5.29304L15.2929 6.70726L13 4.41436V11.0002H19.5858L17.2929 8.70726L18.7071 7.29304L23.4142 12.0002L18.7071 16.7073L17.2929 15.293L19.5858 13.0002Z" fill="black"/>
</svg>
