<svg width="24" height="24" viewBox="0 0 24 24" fill="none" xmlns="http://www.w3.org/2000/svg">
<path fill-rule="evenodd" clip-rule="evenodd" d="M3 19.0002H16.4142L12.2607 14.8466C13.1642 13.4482 13.9392 13.0002 15.5 13.0002C16.3848 13.0002 17.2926 13.3159 18.1634 13.8518C18.4769 14.0447 18.7619 14.252 19.0109 14.458C19.1554 14.5777 19.2516 14.666 19.2929 14.7073L21 16.4144V14.0002C21 10.1788 16.8865 7.00015 13 7.00015C10.8893 7.00015 9.52536 7.4548 8.15308 8.55262C7.79109 8.84221 7.49463 9.10866 7.00303 9.58897L3 5.58594V19.0002ZM5 17.0002V10.4144L7 12.4144L7.70711 11.7073C8.62352 10.7908 8.97349 10.4575 9.40247 10.1144C10.4111 9.30741 11.3329 9.00015 13 9.00015C14.9224 9.00015 16.9534 10.0763 18.0904 11.562C17.2596 11.204 16.3926 11.0002 15.5 11.0002C12.883 11.0002 11.5459 12.0292 10.1318 14.504L9.75281 15.1672L11.5858 17.0002H5Z" fill="black"/>
</svg>
