<svg width="24" height="24" viewBox="0 0 24 24" fill="none" xmlns="http://www.w3.org/2000/svg">
<path fill-rule="evenodd" clip-rule="evenodd" d="M17.5858 19.0001H7C3.68629 19.0001 1 16.3138 1 13.0001C1 10.1321 3.01605 7.72298 5.72212 7.13641L1.29289 2.70718L2.70711 1.29297L22.7071 21.293L21.2929 22.7072L17.5858 19.0001ZM7.45532 8.86961L7.39066 8.98159L6.83965 9.00322C4.69934 9.08723 3 10.8505 3 13.0001C3 15.2092 4.79086 17.0001 7 17.0001H15.5858L7.45532 8.86961ZM20.2257 16.0116L21.641 17.4269C22.4837 16.5319 23 15.3263 23 14.0001C23 11.485 21.1431 9.4037 18.7254 9.05232C17.875 6.1057 15.1586 4.00008 12 4.00008C10.9093 4.00008 9.86235 4.25177 8.92461 4.71047L10.4571 6.24299C10.9466 6.08444 11.4659 6.00008 12 6.00008C14.4511 6.00008 16.5303 7.77634 16.9309 10.1662L17.0738 11.0183L17.9375 11.0007C17.9531 11.0004 17.9608 11.0003 17.9686 11.0002C17.9765 11.0002 17.9843 11.0001 18 11.0001C19.6569 11.0001 21 12.3432 21 14.0001C21 14.774 20.7069 15.4795 20.2257 16.0116Z" fill="black"/>
</svg>
