<svg width="80" height="98" viewBox="0 0 80 98" fill="none" xmlns="http://www.w3.org/2000/svg">
<path d="M5.50158 43.8936C5.6756 41.7254 6.65991 39.7023 8.25849 38.2271C9.85707 36.752 11.9526 35.9331 14.1278 35.9336H66.2918C68.467 35.9331 70.5625 36.752 72.1611 38.2271C73.7597 39.7023 74.744 41.7254 74.918 43.8936L78.3919 87.1545C78.4874 88.345 78.3354 89.5424 77.9455 90.6713C77.5556 91.8002 76.9362 92.8361 76.1263 93.7139C75.3164 94.5917 74.3335 95.2923 73.2396 95.7716C72.1456 96.2509 70.9643 96.4985 69.77 96.4988H10.6496C9.45529 96.4985 8.27396 96.2509 7.18001 95.7716C6.08607 95.2923 5.1032 94.5917 4.29329 93.7139C3.48338 92.8361 2.86397 91.8002 2.47406 90.6713C2.08415 89.5424 1.93219 88.345 2.02773 87.1545L5.50158 43.8936V43.8936Z" stroke="#0062D7" stroke-width="3" stroke-linecap="round" stroke-linejoin="round"/>
<path d="M57.5133 40.9348V19.3044C57.5133 14.715 55.6901 10.3135 52.4449 7.06833C49.1997 3.82313 44.7983 2 40.2089 2C35.6195 2 31.2181 3.82313 27.9729 7.06833C24.7277 10.3135 22.9045 14.715 22.9045 19.3044V40.9348" stroke="#0062D7" stroke-width="3" stroke-linecap="round" stroke-linejoin="round"/>
</svg>
