<svg width="17" height="22" viewBox="0 0 17 22" fill="none" xmlns="http://www.w3.org/2000/svg">
<path d="M2.7625 3.45098C2.66089 2.21333 2.60483 1.32502 2.57617 0.749204C2.55557 0.335502 2.88579 0 3.3 0H4.51778C4.94905 0 5.28867 0.365507 5.34734 0.79277C5.52046 2.05341 6.29031 3.66667 8.5 3.66667C10.6821 3.66667 11.3689 2.09345 11.4821 0.840156C11.5224 0.393543 11.8685 0 12.317 0H13.7C14.1142 0 14.45 0.334977 14.45 0.749191V3.45098C14.45 5.46294 15.4773 6.3888 16.334 6.73511C16.6953 6.88117 17 7.20149 17 7.5912V21.25C17 21.6642 16.6642 22 16.25 22H0.75C0.335786 22 0 21.6642 0 21.25V7.65196C0 7.23775 0.339033 6.91323 0.746417 6.83833C2.05522 6.59768 2.9425 5.64334 2.7625 3.45098Z" fill="#566180"/>
</svg>
