<svg width="25" height="25" viewBox="0 0 25 25" fill="none" xmlns="http://www.w3.org/2000/svg">
<path d="M16.875 0.46875V6.45047L13.5938 8.39844V5.08328L11.9531 6.10813L8.125 8.39844V5.08328L6.48438 6.10813L1.01562 9.38937L0.46875 9.69672V24.5312H24.5312V0.46875H16.875ZM19.0625 2.65625H22.3438V22.3438H2.65625V10.8933L5.9375 8.94531V12.2605L7.57812 11.2356L11.4062 8.94531V12.2605L13.0469 11.2356L18.5156 7.95437L19.0625 7.64703V2.65625ZM4.84375 13.5938V15.7812H7.03125V13.5938H4.84375ZM9.21875 13.5938V15.7812H11.4062V13.5938H9.21875ZM13.5938 13.5938V15.7812H15.7812V13.5938H13.5938ZM17.9688 13.5938V15.7812H20.1562V13.5938H17.9688ZM4.84375 17.9688V20.1562H7.03125V17.9688H4.84375ZM9.21875 17.9688V20.1562H11.4062V17.9688H9.21875ZM13.5938 17.9688V20.1562H15.7812V17.9688H13.5938ZM17.9688 17.9688V20.1562H20.1562V17.9688H17.9688Z" fill="#0062D7"/>
</svg>
