<svg width="66" height="66" viewBox="0 0 66 66" fill="none" xmlns="http://www.w3.org/2000/svg">
<path d="M19.9375 33C19.3905 33 18.8659 33.2173 18.4791 33.6041C18.0923 33.9909 17.875 34.5155 17.875 35.0625C17.875 35.6095 18.0923 36.1341 18.4791 36.5209C18.8659 36.9077 19.3905 37.125 19.9375 37.125H21.3125C21.8595 37.125 22.3841 36.9077 22.7709 36.5209C23.1577 36.1341 23.375 35.6095 23.375 35.0625C23.375 34.5155 23.1577 33.9909 22.7709 33.6041C22.3841 33.2173 21.8595 33 21.3125 33H19.9375ZM17.875 25.4375C17.875 24.8905 18.0923 24.3659 18.4791 23.9791C18.8659 23.5923 19.3905 23.375 19.9375 23.375H21.3125C21.8595 23.375 22.3841 23.5923 22.7709 23.9791C23.1577 24.3659 23.375 24.8905 23.375 25.4375C23.375 25.9845 23.1577 26.5091 22.7709 26.8959C22.3841 27.2827 21.8595 27.5 21.3125 27.5H19.9375C19.3905 27.5 18.8659 27.2827 18.4791 26.8959C18.0923 26.5091 17.875 25.9845 17.875 25.4375ZM19.9375 13.75C19.3905 13.75 18.8659 13.9673 18.4791 14.3541C18.0923 14.7409 17.875 15.2655 17.875 15.8125C17.875 16.3595 18.0923 16.8841 18.4791 17.2709C18.8659 17.6577 19.3905 17.875 19.9375 17.875H21.3125C21.8595 17.875 22.3841 17.6577 22.7709 17.2709C23.1577 16.8841 23.375 16.3595 23.375 15.8125C23.375 15.2655 23.1577 14.7409 22.7709 14.3541C22.3841 13.9673 21.8595 13.75 21.3125 13.75H19.9375ZM27.5 35.0625C27.5 34.5155 27.7173 33.9909 28.1041 33.6041C28.4909 33.2173 29.0155 33 29.5625 33H30.9375C31.4845 33 32.0091 33.2173 32.3959 33.6041C32.7827 33.9909 33 34.5155 33 35.0625C33 35.6095 32.7827 36.1341 32.3959 36.5209C32.0091 36.9077 31.4845 37.125 30.9375 37.125H29.5625C29.0155 37.125 28.4909 36.9077 28.1041 36.5209C27.7173 36.1341 27.5 35.6095 27.5 35.0625ZM29.5625 23.375C29.0155 23.375 28.4909 23.5923 28.1041 23.9791C27.7173 24.3659 27.5 24.8905 27.5 25.4375C27.5 25.9845 27.7173 26.5091 28.1041 26.8959C28.4909 27.2827 29.0155 27.5 29.5625 27.5H30.9375C31.4845 27.5 32.0091 27.2827 32.3959 26.8959C32.7827 26.5091 33 25.9845 33 25.4375C33 24.8905 32.7827 24.3659 32.3959 23.9791C32.0091 23.5923 31.4845 23.375 30.9375 23.375H29.5625ZM27.5 15.8125C27.5 15.2655 27.7173 14.7409 28.1041 14.3541C28.4909 13.9673 29.0155 13.75 29.5625 13.75H30.9375C31.4845 13.75 32.0091 13.9673 32.3959 14.3541C32.7827 14.7409 33 15.2655 33 15.8125C33 16.3595 32.7827 16.8841 32.3959 17.2709C32.0091 17.6577 31.4845 17.875 30.9375 17.875H29.5625C29.0155 17.875 28.4909 17.6577 28.1041 17.2709C27.7173 16.8841 27.5 16.3595 27.5 15.8125ZM39.1875 33C38.6405 33 38.1159 33.2173 37.7291 33.6041C37.3423 33.9909 37.125 34.5155 37.125 35.0625C37.125 35.6095 37.3423 36.1341 37.7291 36.5209C38.1159 36.9077 38.6405 37.125 39.1875 37.125H40.5625C41.1095 37.125 41.6341 36.9077 42.0209 36.5209C42.4077 36.1341 42.625 35.6095 42.625 35.0625C42.625 34.5155 42.4077 33.9909 42.0209 33.6041C41.6341 33.2173 41.1095 33 40.5625 33H39.1875ZM37.125 25.4375C37.125 24.8905 37.3423 24.3659 37.7291 23.9791C38.1159 23.5923 38.6405 23.375 39.1875 23.375H40.5625C41.1095 23.375 41.6341 23.5923 42.0209 23.9791C42.4077 24.3659 42.625 24.8905 42.625 25.4375C42.625 25.9845 42.4077 26.5091 42.0209 26.8959C41.6341 27.2827 41.1095 27.5 40.5625 27.5H39.1875C38.6405 27.5 38.1159 27.2827 37.7291 26.8959C37.3423 26.5091 37.125 25.9845 37.125 25.4375ZM39.1875 13.75C38.6405 13.75 38.1159 13.9673 37.7291 14.3541C37.3423 14.7409 37.125 15.2655 37.125 15.8125C37.125 16.3595 37.3423 16.8841 37.7291 17.2709C38.1159 17.6577 38.6405 17.875 39.1875 17.875H40.5625C41.1095 17.875 41.6341 17.6577 42.0209 17.2709C42.4077 16.8841 42.625 16.3595 42.625 15.8125C42.625 15.2655 42.4077 14.7409 42.0209 14.3541C41.6341 13.9673 41.1095 13.75 40.5625 13.75H39.1875Z" fill="#0062D7"/>
<path fill-rule="evenodd" clip-rule="evenodd" d="M8.25 55C8.25 56.4587 8.82946 57.8576 9.86091 58.8891C10.8924 59.9205 12.2913 60.5 13.75 60.5H24.0625C24.6095 60.5 25.1341 60.2827 25.5209 59.8959C25.9077 59.5091 26.125 58.9845 26.125 58.4375V52.25H34.375V58.4375C34.375 59.576 35.299 60.5 36.4375 60.5H46.75C47.003 60.5 47.2533 60.4835 47.498 60.4505C47.6479 60.4838 47.801 60.5004 47.9545 60.5H59.125C60.5837 60.5 61.9826 59.9205 63.0141 58.8891C64.0455 57.8576 64.625 56.4587 64.625 55V34.0312C64.625 33.1774 64.4262 32.3353 64.0443 31.5716C63.6625 30.8079 63.1081 30.1436 62.425 29.6312L59.675 27.5687C59.4583 27.4062 59.2118 27.288 58.9494 27.2208C58.687 27.1536 58.4139 27.1387 58.1458 27.177C57.8777 27.2153 57.6197 27.306 57.3867 27.444C57.1536 27.582 56.95 27.7646 56.7875 27.9812C56.625 28.1979 56.5067 28.4445 56.4395 28.7069C56.3723 28.9693 56.3574 29.2423 56.3957 29.5104C56.434 29.7786 56.5248 30.0365 56.6628 30.2696C56.8008 30.5026 56.9833 30.7062 57.2 30.8687L59.95 32.9312C60.1208 33.0593 60.2594 33.2254 60.3548 33.4163C60.4503 33.6073 60.5 33.8178 60.5 34.0312V55C60.5 55.3647 60.3551 55.7144 60.0973 55.9723C59.8394 56.2301 59.4897 56.375 59.125 56.375H52.0768C52.1895 55.935 52.25 55.4757 52.25 55V8.25C52.25 6.79131 51.6705 5.39236 50.6391 4.36091C49.6076 3.32946 48.2087 2.75 46.75 2.75H13.75C12.2913 2.75 10.8924 3.32946 9.86091 4.36091C8.82946 5.39236 8.25 6.79131 8.25 8.25V55ZM13.75 56.375C13.3853 56.375 13.0356 56.2301 12.7777 55.9723C12.5199 55.7144 12.375 55.3647 12.375 55V8.25C12.375 7.88533 12.5199 7.53559 12.7777 7.27773C13.0356 7.01987 13.3853 6.875 13.75 6.875H46.75C47.1147 6.875 47.4644 7.01987 47.7223 7.27773C47.9801 7.53559 48.125 7.88533 48.125 8.25V55C48.125 55.3647 47.9801 55.7144 47.7223 55.9723C47.4644 56.2301 47.1147 56.375 46.75 56.375H38.5V50.1875C38.5 49.6405 38.2827 49.1159 37.8959 48.7291C37.5091 48.3423 36.9845 48.125 36.4375 48.125H24.0625C23.5155 48.125 22.9909 48.3423 22.6041 48.7291C22.2173 49.1159 22 49.6405 22 50.1875V56.375H13.75Z" fill="#0062D7"/>
</svg>
