<svg width="57" height="59" viewBox="0 0 57 59" fill="none" xmlns="http://www.w3.org/2000/svg">
<path fill-rule="evenodd" clip-rule="evenodd" d="M0.25 53C0.25 54.4587 0.829462 55.8576 1.86091 56.8891C2.89236 57.9205 4.29131 58.5 5.75 58.5H16.0625C16.6095 58.5 17.1341 58.2827 17.5209 57.8959C17.9077 57.5091 18.125 56.9845 18.125 56.4375V50.25H26.375V56.4375C26.375 57.576 27.299 58.5 28.4375 58.5H38.75C39.003 58.5 39.2533 58.4835 39.498 58.4505C39.6479 58.4838 39.801 58.5004 39.9545 58.5H51.125C52.5837 58.5 53.9826 57.9205 55.0141 56.8891C56.0455 55.8576 56.625 54.4587 56.625 53V32.0312C56.625 31.1774 56.4262 30.3353 56.0443 29.5716C55.6625 28.8079 55.1081 28.1436 54.425 27.6312L51.675 25.5687C51.4583 25.4062 51.2118 25.288 50.9494 25.2208C50.687 25.1536 50.4139 25.1387 50.1458 25.177C49.8777 25.2153 49.6197 25.306 49.3867 25.444C49.1536 25.582 48.95 25.7646 48.7875 25.9812C48.625 26.1979 48.5067 26.4445 48.4395 26.7069C48.3723 26.9693 48.3574 27.2423 48.3957 27.5104C48.434 27.7786 48.5248 28.0365 48.6628 28.2696C48.8008 28.5026 48.9833 28.7062 49.2 28.8687L51.95 30.9312C52.1208 31.0593 52.2594 31.2254 52.3548 31.4163C52.4503 31.6073 52.5 31.8178 52.5 32.0312V53C52.5 53.3647 52.3551 53.7144 52.0973 53.9723C51.8394 54.2301 51.4897 54.375 51.125 54.375H44.0768C44.1895 53.935 44.25 53.4757 44.25 53V6.25C44.25 4.79131 43.6705 3.39236 42.6391 2.36091C41.6076 1.32946 40.2087 0.75 38.75 0.75H5.75C4.29131 0.75 2.89236 1.32946 1.86091 2.36091C0.829462 3.39236 0.25 4.79131 0.25 6.25V53ZM5.75 54.375C5.38533 54.375 5.03559 54.2301 4.77773 53.9723C4.51987 53.7144 4.375 53.3647 4.375 53V6.25C4.375 5.88533 4.51987 5.53559 4.77773 5.27773C5.03559 5.01987 5.38533 4.875 5.75 4.875H38.75C39.1147 4.875 39.4644 5.01987 39.7223 5.27773C39.9801 5.53559 40.125 5.88533 40.125 6.25V53C40.125 53.3647 39.9801 53.7144 39.7223 53.9723C39.4644 54.2301 39.1147 54.375 38.75 54.375H30.5V48.1875C30.5 47.6405 30.2827 47.1159 29.8959 46.7291C29.5091 46.3423 28.9845 46.125 28.4375 46.125H16.0625C15.5155 46.125 14.9909 46.3423 14.6041 46.7291C14.2173 47.1159 14 47.6405 14 48.1875V54.375H5.75Z" fill="#0062D7"/>
</svg>
