<svg width="24" height="24" viewBox="0 0 24 24" fill="none" xmlns="http://www.w3.org/2000/svg">
<path fill-rule="evenodd" clip-rule="evenodd" d="M6.20712 2.70718L4.79291 1.29297L1.29291 4.79297L2.70712 6.20718L6.20712 2.70718ZM19.2071 1.29297L22.7071 4.79297L21.2929 6.20718L17.7929 2.70718L19.2071 1.29297ZM12 22.0001C6.47717 22.0001 2.00001 17.5229 2.00001 12.0001C2.00001 6.47723 6.47717 2.00008 12 2.00008C17.5229 2.00008 22 6.47723 22 12.0001C22 17.5229 17.5229 22.0001 12 22.0001ZM12 20.0001C16.4183 20.0001 20 16.4184 20 12.0001C20 7.5818 16.4183 4.00008 12 4.00008C7.58174 4.00008 4.00001 7.5818 4.00001 12.0001C4.00001 16.4184 7.58174 20.0001 12 20.0001ZM17 11.0001H13V6.00008H11V13.0001H17V11.0001Z" fill="black"/>
</svg>
