<svg width="24" height="24" viewBox="0 0 24 24" fill="none" xmlns="http://www.w3.org/2000/svg">
<path fill-rule="evenodd" clip-rule="evenodd" d="M2.33579 3.75008L1.29289 4.79297L2.70711 6.20718L3.75 5.16429L4.25705 5.67134C2.84636 7.39521 2 9.59881 2 12.0001C2 17.5229 6.47715 22.0001 12 22.0001C14.4013 22.0001 16.6049 21.1537 18.3287 19.743L21.2929 22.7072L22.7071 21.293L2.70711 1.29297L1.29289 2.70718L2.33579 3.75008ZM16.9056 18.3199L5.68014 7.09443C4.62708 8.44912 4 10.1514 4 12.0001C4 16.4184 7.58172 20.0001 12 20.0001C13.8487 20.0001 15.551 19.373 16.9056 18.3199ZM20 12.0001C20 13.1163 19.7714 14.1791 19.3584 15.1443L20.8584 16.6443C21.5875 15.2565 22 13.6765 22 12.0001C22 6.47723 17.5228 2.00008 12 2.00008C10.3236 2.00008 8.74353 2.41259 7.35578 3.14164L8.85577 4.64163C9.82094 4.22868 10.8838 4.00008 12 4.00008C16.4183 4.00008 20 7.5818 20 12.0001ZM19.2071 1.29297L22.7071 4.79297L21.2929 6.20718L17.7929 2.70718L19.2071 1.29297Z" fill="black"/>
</svg>
