<svg width="24" height="24" viewBox="0 0 24 24" fill="none" xmlns="http://www.w3.org/2000/svg">
<path fill-rule="evenodd" clip-rule="evenodd" d="M4.79289 1.29297L6.20711 2.70718L2.70711 6.20718L1.29289 4.79297L4.79289 1.29297ZM22.7071 4.79297L19.2071 1.29297L17.7929 2.70718L21.2929 6.20718L22.7071 4.79297ZM12 22.0001C6.47715 22.0001 2 17.5229 2 12.0001C2 6.47723 6.47715 2.00008 12 2.00008C17.5228 2.00008 22 6.47723 22 12.0001C22 17.5229 17.5228 22.0001 12 22.0001ZM12 20.0001C16.4183 20.0001 20 16.4184 20 12.0001C20 7.5818 16.4183 4.00008 12 4.00008C7.58172 4.00008 4 7.5818 4 12.0001C4 16.4184 7.58172 20.0001 12 20.0001ZM15.2929 8.29297L11 12.5859L8.70711 10.293L7.29289 11.7072L11 15.4143L16.7071 9.70718L15.2929 8.29297Z" fill="black"/>
</svg>
