<svg width="519" height="563" viewBox="0 0 519 563" fill="none" xmlns="http://www.w3.org/2000/svg">
<rect x="0.5" y="0.5" width="517.216" height="562" rx="14.5" stroke="#CADEF7"/>
<path d="M5.33145 4.26514L513.951 557.669" stroke="#CADEF7"/>
<path d="M513.951 4.26514L5.33142 557.669" stroke="#CADEF7"/>
<path d="M215.896 270.571V291.511H211.696V270.571H215.896ZM240.685 274.651C242.725 274.651 244.365 275.281 245.605 276.541C246.865 277.781 247.495 279.521 247.495 281.761V291.511H243.295V282.331C243.295 281.031 242.965 280.041 242.305 279.361C241.645 278.661 240.745 278.311 239.605 278.311C238.465 278.311 237.555 278.661 236.875 279.361C236.215 280.041 235.885 281.031 235.885 282.331V291.511H231.685V282.331C231.685 281.031 231.355 280.041 230.695 279.361C230.035 278.661 229.135 278.311 227.995 278.311C226.835 278.311 225.915 278.661 225.235 279.361C224.575 280.041 224.245 281.031 224.245 282.331V291.511H220.045V274.891H224.245V276.901C224.785 276.201 225.475 275.651 226.315 275.251C227.175 274.851 228.115 274.651 229.135 274.651C230.435 274.651 231.595 274.931 232.615 275.491C233.635 276.031 234.425 276.811 234.985 277.831C235.525 276.871 236.305 276.101 237.325 275.521C238.365 274.941 239.485 274.651 240.685 274.651ZM250.401 283.141C250.401 281.461 250.731 279.971 251.391 278.671C252.071 277.371 252.981 276.371 254.121 275.671C255.281 274.971 256.571 274.621 257.991 274.621C259.231 274.621 260.311 274.871 261.231 275.371C262.171 275.871 262.921 276.501 263.481 277.261V274.891H267.711V291.511H263.481V289.081C262.941 289.861 262.191 290.511 261.231 291.031C260.291 291.531 259.201 291.781 257.961 291.781C256.561 291.781 255.281 291.421 254.121 290.701C252.981 289.981 252.071 288.971 251.391 287.671C250.731 286.351 250.401 284.841 250.401 283.141ZM263.481 283.201C263.481 282.181 263.281 281.311 262.881 280.591C262.481 279.851 261.941 279.291 261.261 278.911C260.581 278.511 259.851 278.311 259.071 278.311C258.291 278.311 257.571 278.501 256.911 278.881C256.251 279.261 255.711 279.821 255.291 280.561C254.891 281.281 254.691 282.141 254.691 283.141C254.691 284.141 254.891 285.021 255.291 285.781C255.711 286.521 256.251 287.091 256.911 287.491C257.591 287.891 258.311 288.091 259.071 288.091C259.851 288.091 260.581 287.901 261.261 287.521C261.941 287.121 262.481 286.561 262.881 285.841C263.281 285.101 263.481 284.221 263.481 283.201ZM278.323 274.621C279.563 274.621 280.653 274.871 281.593 275.371C282.533 275.851 283.273 276.481 283.813 277.261V274.891H288.043V291.631C288.043 293.171 287.733 294.541 287.113 295.741C286.493 296.961 285.563 297.921 284.323 298.621C283.083 299.341 281.583 299.701 279.823 299.701C277.463 299.701 275.523 299.151 274.003 298.051C272.503 296.951 271.653 295.451 271.453 293.551H275.623C275.843 294.311 276.313 294.911 277.033 295.351C277.773 295.811 278.663 296.041 279.703 296.041C280.923 296.041 281.913 295.671 282.673 294.931C283.433 294.211 283.813 293.111 283.813 291.631V289.051C283.273 289.831 282.523 290.481 281.563 291.001C280.623 291.521 279.543 291.781 278.323 291.781C276.923 291.781 275.643 291.421 274.483 290.701C273.323 289.981 272.403 288.971 271.723 287.671C271.063 286.351 270.733 284.841 270.733 283.141C270.733 281.461 271.063 279.971 271.723 278.671C272.403 277.371 273.313 276.371 274.453 275.671C275.613 274.971 276.903 274.621 278.323 274.621ZM283.813 283.201C283.813 282.181 283.613 281.311 283.213 280.591C282.813 279.851 282.273 279.291 281.593 278.911C280.913 278.511 280.183 278.311 279.403 278.311C278.623 278.311 277.903 278.501 277.243 278.881C276.583 279.261 276.043 279.821 275.623 280.561C275.223 281.281 275.023 282.141 275.023 283.141C275.023 284.141 275.223 285.021 275.623 285.781C276.043 286.521 276.583 287.091 277.243 287.491C277.923 287.891 278.643 288.091 279.403 288.091C280.183 288.091 280.913 287.901 281.593 287.521C282.273 287.121 282.813 286.561 283.213 285.841C283.613 285.101 283.813 284.221 283.813 283.201ZM307.595 282.841C307.595 283.441 307.555 283.981 307.475 284.461H295.325C295.425 285.661 295.845 286.601 296.585 287.281C297.325 287.961 298.235 288.301 299.315 288.301C300.875 288.301 301.985 287.631 302.645 286.291H307.175C306.695 287.891 305.775 289.211 304.415 290.251C303.055 291.271 301.385 291.781 299.405 291.781C297.805 291.781 296.365 291.431 295.085 290.731C293.825 290.011 292.835 289.001 292.115 287.701C291.415 286.401 291.065 284.901 291.065 283.201C291.065 281.481 291.415 279.971 292.115 278.671C292.815 277.371 293.795 276.371 295.055 275.671C296.315 274.971 297.765 274.621 299.405 274.621C300.985 274.621 302.395 274.961 303.635 275.641C304.895 276.321 305.865 277.291 306.545 278.551C307.245 279.791 307.595 281.221 307.595 282.841ZM303.245 281.641C303.225 280.561 302.835 279.701 302.075 279.061C301.315 278.401 300.385 278.071 299.285 278.071C298.245 278.071 297.365 278.391 296.645 279.031C295.945 279.651 295.515 280.521 295.355 281.641H303.245Z" fill="#CADEF7"/>
</svg>
