<svg width="24" height="24" viewBox="0 0 24 24" fill="none" xmlns="http://www.w3.org/2000/svg">
<path fill-rule="evenodd" clip-rule="evenodd" d="M1.29291 21.293L2.70712 22.7072L7.53821 17.8761C11.9732 21.9024 17.4402 23.2995 20.1042 20.634C20.569 20.1859 20.9625 19.7922 21.2729 19.4641C22.1679 18.5181 22.3038 16.8599 21.267 15.7826C20.7354 15.2303 19.6504 14.3886 17.733 13.0171C17.1458 12.492 16.4495 12.6058 15.8111 13.0246C15.504 13.226 15.2806 13.4298 14.8586 13.8522L14.0924 14.6189C14.0103 14.701 13.0896 14.2629 12.0334 13.3809L22.7071 2.70718L21.2929 1.29297L1.29291 21.293ZM10.6099 14.8044L8.95403 16.4603C12.6779 19.8027 16.9984 20.9131 18.7038 19.2069C19.1614 18.7656 19.5343 18.3925 19.8212 18.0892C20.0286 17.87 20.0657 17.4177 19.8271 17.1698C19.4298 16.757 18.457 15.9985 16.7774 14.7923C16.6549 14.8909 16.5044 15.0338 16.2722 15.2663L15.5058 16.0331C14.3535 17.186 12.4846 16.4498 10.6099 14.8044ZM9.37443 9.89877C9.33839 9.9348 9.40354 10.1343 9.56334 10.4367L8.09261 11.9075C7.28713 10.5667 7.11364 9.33184 7.96144 8.4841L8.72746 7.71766C8.85004 7.59496 8.90611 7.53812 8.97341 7.46739C9.06511 7.37102 9.14046 7.28638 9.20079 7.21148C8.03542 5.58814 7.24322 4.57378 6.81615 4.15191C6.5956 3.93404 6.10174 3.97415 5.92043 4.1528C5.43688 4.62926 5.27794 4.78812 4.77627 5.29763C3.29593 6.77879 3.95991 10.2694 6.38445 13.6156L4.95409 15.046C1.84979 10.9125 0.974719 6.27286 3.35755 3.88876C3.86124 3.37715 4.02731 3.21116 4.51787 2.72779C5.43119 1.82786 7.16596 1.68695 8.22052 2.72869C8.77522 3.27664 9.65957 4.41448 10.9745 6.25446C11.5605 6.90399 11.3747 7.63984 10.8566 8.33805C10.7338 8.50359 10.5922 8.66669 10.4212 8.84642C10.3391 8.93268 10.2751 8.99756 10.1412 9.13157L9.37443 9.89877Z" fill="black"/>
</svg>
