<svg width="24" height="24" viewBox="0 0 24 24" fill="none" xmlns="http://www.w3.org/2000/svg">
<path fill-rule="evenodd" clip-rule="evenodd" d="M19.6278 11.9998C21.7205 15.4221 22.2461 18.7242 20.4853 20.4851C18.7244 22.2459 15.4222 21.7203 12 19.6276C8.57772 21.7203 5.27554 22.2459 3.51471 20.4851C1.75387 18.7242 2.27946 15.4221 4.37219 11.9998C2.27946 8.57754 1.75387 5.27536 3.51471 3.51452C5.27554 1.75369 8.57772 2.27928 12 4.372C15.4223 2.27928 18.7244 1.75369 20.4853 3.51452C22.2461 5.27536 21.7205 8.57754 19.6278 11.9998ZM9.17156 9.17138C10.0979 8.245 11.0567 7.44224 12 6.77427C12.9432 7.44224 13.902 8.245 14.8284 9.17138C15.7548 10.0978 16.5575 11.0566 17.2255 11.9998C16.5575 12.9431 15.7548 13.9018 14.8284 14.8282C13.902 15.7546 12.9432 16.5574 12 17.2253C11.0567 16.5574 10.0979 15.7546 9.17156 14.8282C8.24518 13.9018 7.44243 12.943 6.77445 11.9998C7.44243 11.0566 8.24518 10.0978 9.17156 9.17138ZM4.92892 4.92874C5.7904 4.06726 7.8205 4.36783 10.1706 5.63324C9.35211 6.26206 8.54119 6.97332 7.75735 7.75716C6.97351 8.541 6.26224 9.35193 5.63342 10.1705C4.36801 7.82032 4.06744 5.79022 4.92892 4.92874ZM16.2426 7.75716C17.0265 8.541 17.7377 9.35193 18.3666 10.1705C19.632 7.82032 19.9325 5.79022 19.0711 4.92874C18.2096 4.06726 16.1795 4.36783 13.8293 5.63324C14.6479 6.26206 15.4588 6.97332 16.2426 7.75716ZM16.2426 16.2424C17.0265 15.4586 17.7377 14.6477 18.3666 13.8292C19.632 16.1793 19.9325 18.2094 19.0711 19.0709C18.2096 19.9324 16.1795 19.6318 13.8293 18.3664C14.6479 17.7375 15.4588 17.0263 16.2426 16.2424ZM5.63342 13.8292C6.26224 14.6477 6.97351 15.4586 7.75735 16.2424C8.54119 17.0263 9.35211 17.7375 10.1706 18.3664C7.8205 19.6318 5.7904 19.9324 4.92892 19.0709C4.06744 18.2094 4.36801 16.1793 5.63342 13.8292ZM13 11.9998C13 11.4475 12.5523 10.9998 12 10.9998C11.4477 10.9998 11 11.4475 11 11.9998C11 12.5521 11.4477 12.9998 12 12.9998C12.5523 12.9998 13 12.5521 13 11.9998Z" fill="black"/>
</svg>
