<svg width="51" height="45" viewBox="0 0 51 45" fill="none" xmlns="http://www.w3.org/2000/svg">
<path d="M50.1785 9.44134C50.1785 7.37758 48.5141 5.69691 46.4677 5.69691H40.4164L40.4168 0.678918C40.4168 0.304603 40.115 0 39.744 0H37.392C37.0211 0 36.7192 0.304603 36.7192 0.678918V5.69691H12.0569V4.26601C12.0569 3.89169 11.755 3.58709 11.3841 3.58709C11.0131 3.58709 10.7113 3.89169 10.7113 4.26601V5.69691H10.2733C8.2268 5.69691 6.5625 7.37758 6.5724 9.55714L8.62908 21.4971C8.63319 21.5199 8.64718 21.5378 8.65335 21.5598C8.66527 21.6029 8.68049 21.6428 8.70064 21.683C8.7212 21.7245 8.74382 21.7619 8.77179 21.7976C8.79523 21.8279 8.82114 21.8544 8.84993 21.8806C8.88858 21.9158 8.9293 21.9449 8.97495 21.9702C8.9914 21.9793 9.0025 21.9947 9.02019 22.0026C9.04075 22.0117 9.06913 22.0217 9.11025 22.0316C9.13493 22.0387 9.15919 22.0416 9.18469 22.0457C9.38703 22.0785 9.88218 22.1088 11.2131 22.1163V27.7444C11.2131 28.1187 11.5149 28.4233 11.8859 28.4233H12.6932V31.305C12.6932 31.6793 12.995 31.9839 13.366 31.9839C13.7369 31.9839 14.0388 31.6793 14.0388 31.305V28.4233H14.8445C15.2154 28.4233 15.5173 28.1187 15.5173 27.7444L15.5164 22.0885C16.1033 22.0811 16.7346 22.0719 17.435 22.0607C17.7994 22.0541 18.093 21.7528 18.0963 21.3835C18.0963 21.3636 18.121 19.3596 19.3519 18.1491C20.0099 17.5017 20.957 17.1656 22.0748 17.2083L29.4491 17.2067C29.6547 17.239 32.4114 17.8038 32.4114 24.6707V34.8972H1.84486C0.827401 34.8972 0 35.7318 0 36.7588C0 40.7717 3.235 44.0356 7.2114 44.0356H48.3346C49.352 44.0356 50.1794 43.2011 50.1794 42.174V36.7584C50.1794 36.6928 50.149 36.6368 50.1424 36.5729C50.1597 36.5127 50.1794 36.453 50.1794 36.3874L50.1785 9.44134ZM29.7306 36.2555H48.334C48.6095 36.2555 48.8328 36.4809 48.8328 36.7589V38.7878H29.7304L29.7306 36.2555ZM38.0647 1.35777H39.0707V5.69691H38.0647V1.35777ZM18.0843 14.2326H14.9625V7.05505H18.0843V14.2326ZM9.86327 20.7446L7.90692 9.44209C7.90692 8.12528 8.96711 7.05547 10.2721 7.05547H13.6169V20.7505C13.1764 20.7542 12.7553 20.7567 12.3585 20.7584H11.8839C11.8814 20.7584 11.8793 20.76 11.8765 20.76C11.0013 20.7617 10.2931 20.7571 9.86336 20.7451L9.86327 20.7446ZM14.1699 22.1157V27.0657H12.5566V22.117C12.6619 22.1166 12.7495 22.1166 12.8613 22.1158L14.1699 22.1157ZM29.5137 15.8506C29.5084 15.8506 29.5039 15.8531 29.4985 15.8531C29.4911 15.8527 29.485 15.849 29.4776 15.849L22.0873 15.8506C20.592 15.8523 19.3318 16.2698 18.4045 17.1856C17.2686 18.3085 16.9125 19.8436 16.8011 20.713C16.1866 20.7221 15.5705 20.73 14.9627 20.7366V15.5904H18.7574C19.1284 15.5904 19.4302 15.2858 19.4302 14.9115V11.3227H34.3719C34.7428 11.3227 35.0447 11.0181 35.0447 10.6438C35.0447 10.2695 34.7428 9.96486 34.3719 9.96486H19.4302V7.05493H46.4677C47.7727 7.05493 48.8329 8.12473 48.8329 9.44154V34.999C48.6708 34.9521 48.5109 34.8969 48.334 34.8969H33.7567V24.6703C33.7567 16.1768 29.6865 15.8605 29.5141 15.8502L29.5137 15.8506ZM1.34553 36.7591C1.34553 36.4811 1.56885 36.2557 1.84439 36.2557H28.3849V42.6781H7.21167C3.97667 42.6781 1.34588 40.023 1.34588 36.7591L1.34553 36.7591ZM48.334 42.6781H29.7306V40.1458H48.833V42.1748C48.833 42.4528 48.6097 42.6781 48.3341 42.6781L48.334 42.6781Z" fill="#566180"/>
</svg>
