<svg width="24" height="24" viewBox="0 0 24 24" fill="none" xmlns="http://www.w3.org/2000/svg">
<path fill-rule="evenodd" clip-rule="evenodd" d="M21 17.1988V6.8065L12 1.61035L3 6.8065V17.1988L12 22.395L21 17.1988ZM5 7.9612L12 3.91975L19 7.9612V16.0441L12 20.0856L5 16.0441V7.9612ZM12 17.0004C9.23858 17.0004 7 14.7618 7 12.0004C7 9.23893 9.23858 7.00035 12 7.00035C14.7614 7.00035 17 9.23893 17 12.0004C17 14.7618 14.7614 17.0004 12 17.0004ZM15 12.0004C15 13.6572 13.6569 15.0004 12 15.0004C10.3431 15.0004 9 13.6572 9 12.0004C9 10.3435 10.3431 9.00035 12 9.00035C13.6569 9.00035 15 10.3435 15 12.0004Z" fill="black"/>
</svg>
