<svg width="24" height="24" viewBox="0 0 24 24" fill="none" xmlns="http://www.w3.org/2000/svg">
<path fill-rule="evenodd" clip-rule="evenodd" d="M5.92685 18.0727L7.6113 22.5948L12 20.5883L16.3887 22.5948L18.0731 18.0727L22.5952 16.3882L20.5887 11.9995L22.5952 7.61084L18.0731 5.92639L16.3887 1.4043L12 3.41081L7.6113 1.4043L5.92685 5.92639L1.40475 7.61084L3.41127 11.9995L1.40475 16.3882L5.92685 18.0727ZM15.265 19.8819L12 18.3891L8.73501 19.8819L7.48186 16.5177L4.11764 15.2645L5.61039 11.9995L4.11764 8.73456L7.48186 7.4814L8.73501 4.11718L12 5.60993L15.265 4.11718L16.5181 7.4814L19.8823 8.73456L18.3896 11.9995L19.8823 15.2645L16.5181 16.5177L15.265 19.8819ZM12 16.9995C9.23857 16.9995 6.99999 14.761 6.99999 11.9995C6.99999 9.23811 9.23857 6.99953 12 6.99953C14.7614 6.99953 17 9.23811 17 11.9995C17 14.761 14.7614 16.9995 12 16.9995ZM15 11.9995C15 13.6564 13.6568 14.9995 12 14.9995C10.3431 14.9995 8.99999 13.6564 8.99999 11.9995C8.99999 10.3427 10.3431 8.99953 12 8.99953C13.6568 8.99953 15 10.3427 15 11.9995Z" fill="black"/>
</svg>
