<svg width="24" height="24" viewBox="0 0 24 24" fill="none" xmlns="http://www.w3.org/2000/svg">
<path fill-rule="evenodd" clip-rule="evenodd" d="M4.23606 9.76401L6.44721 8.65844L8.07966 11.9233L6.06347 17.9719C6.26697 18.1219 6.48188 18.2671 6.70649 18.4064C8.06781 15.9557 9.23042 15.0001 11.5 15.0001C14.0216 15.0001 16.1748 16.5484 16.81 18.6885C17.1426 18.506 17.4585 18.3098 17.7529 18.1038C17.3711 17.6254 17.059 17.1078 16.7964 16.5399C16.5128 15.9268 16.4407 15.7126 16.0307 14.3863C15.4272 12.4339 14.9866 12.0001 13 12.0001H12C10.4477 12.0001 8.99999 10.5524 8.99999 9.00008C8.99999 7.79242 8.07208 6.87283 5.98508 6.26597L4.23606 9.76401ZM5.92032 12.0768L4.48418 16.3852C4.17419 15.9158 3.99999 15.4441 3.99999 15.0001H1.99999C1.99999 18.4748 7.18254 22.0001 12 22.0001C16.8175 22.0001 22 18.4748 22 15.0001H20C20 15.5622 19.7208 16.1687 19.2404 16.7587C18.9957 16.4364 18.7906 16.0873 18.6116 15.7003C18.3817 15.2031 18.3197 15.019 17.9415 13.7956C17.7743 13.2548 17.5964 12.7786 17.3949 12.3628C18.7525 11.7547 20.0639 11.9112 21.4453 12.8321L22.5547 11.168C20.4435 9.76059 18.2493 9.62518 16.1222 10.7618C15.3827 10.2361 14.3967 10.0001 13 10.0001H12C11.5523 10.0001 11 9.44779 11 9.00008C11 6.41549 8.9413 4.76853 5.19611 4.0195L3.99999 3.78027V5.76401L1.78323 10.1975L3.80254 12.2168L5.55278 11.3417L5.92032 12.0768ZM8.4981 19.2991C9.6089 19.7326 10.8196 20.0001 12 20.0001C12.9877 20.0001 13.9966 19.8128 14.9505 19.4977C14.6721 18.0989 13.2524 17.0001 11.5 17.0001C10.1985 17.0001 9.48024 17.5527 8.4981 19.2991Z" fill="black"/>
</svg>
