<svg width="49" height="49" viewBox="0 0 49 49" fill="none" xmlns="http://www.w3.org/2000/svg">
<path d="M24.5 0C10.9912 0 0 10.9912 0 24.5C0 38.0088 10.9912 49 24.5 49C38.0088 49 49 38.0088 49 24.5C49 10.9912 38.0088 0 24.5 0ZM37.6404 42.9211C37.6404 42.4298 37.6404 41.9386 37.6404 41.8158C36.9649 35.7982 31.4386 33.1579 24.6842 33.1579C24.6228 33.1579 24.5614 33.1579 24.5 33.1579C24.4386 33.1579 24.3772 33.1579 24.3158 33.1579C17.5614 33.1579 12.0351 35.7982 11.3596 41.8158C11.3596 41.8772 11.3596 42.3684 11.3596 42.9211C5.58772 38.807 1.84211 32.0526 1.84211 24.5C1.84211 11.9737 11.9737 1.84211 24.5 1.84211C37.0263 1.84211 47.1579 11.9737 47.1579 24.5C47.1579 32.0526 43.4123 38.807 37.6404 42.9211ZM24.5 13.0175C20.7544 13.0175 17.7456 15.7193 17.7456 20.3246C17.7456 24.9298 20.7544 28.614 24.5 28.614C28.2456 28.614 31.2544 24.8684 31.2544 20.3246C31.2544 15.7193 28.2456 13.0175 24.5 13.0175Z" fill="#0062D7"/>
</svg>
