<svg width="12" height="11" viewBox="0 0 12 11" fill="none" xmlns="http://www.w3.org/2000/svg">
<path d="M1.0625 9C0.81386 9 0.575403 9.09877 0.399587 9.27459C0.223772 9.4504 0.125 9.68886 0.125 9.9375C0.125 10.1861 0.223772 10.4246 0.399587 10.6004C0.575403 10.7762 0.81386 10.875 1.0625 10.875H1.6875C1.93614 10.875 2.1746 10.7762 2.35041 10.6004C2.52623 10.4246 2.625 10.1861 2.625 9.9375C2.625 9.68886 2.52623 9.4504 2.35041 9.27459C2.1746 9.09877 1.93614 9 1.6875 9H1.0625ZM0.125 5.5625C0.125 5.31386 0.223772 5.0754 0.399587 4.89959C0.575403 4.72377 0.81386 4.625 1.0625 4.625H1.6875C1.93614 4.625 2.1746 4.72377 2.35041 4.89959C2.52623 5.0754 2.625 5.31386 2.625 5.5625C2.625 5.81114 2.52623 6.0496 2.35041 6.22541C2.1746 6.40123 1.93614 6.5 1.6875 6.5H1.0625C0.81386 6.5 0.575403 6.40123 0.399587 6.22541C0.223772 6.0496 0.125 5.81114 0.125 5.5625ZM1.0625 0.25C0.81386 0.25 0.575403 0.348772 0.399587 0.524587C0.223772 0.700403 0.125 0.93886 0.125 1.1875C0.125 1.43614 0.223772 1.6746 0.399587 1.85041C0.575403 2.02623 0.81386 2.125 1.0625 2.125H1.6875C1.93614 2.125 2.1746 2.02623 2.35041 1.85041C2.52623 1.6746 2.625 1.43614 2.625 1.1875C2.625 0.93886 2.52623 0.700403 2.35041 0.524587C2.1746 0.348772 1.93614 0.25 1.6875 0.25H1.0625ZM4.5 9.9375C4.5 9.68886 4.59877 9.4504 4.77459 9.27459C4.9504 9.09877 5.18886 9 5.4375 9H6.0625C6.31114 9 6.5496 9.09877 6.72541 9.27459C6.90123 9.4504 7 9.68886 7 9.9375C7 10.1861 6.90123 10.4246 6.72541 10.6004C6.5496 10.7762 6.31114 10.875 6.0625 10.875H5.4375C5.18886 10.875 4.9504 10.7762 4.77459 10.6004C4.59877 10.4246 4.5 10.1861 4.5 9.9375ZM5.4375 4.625C5.18886 4.625 4.9504 4.72377 4.77459 4.89959C4.59877 5.0754 4.5 5.31386 4.5 5.5625C4.5 5.81114 4.59877 6.0496 4.77459 6.22541C4.9504 6.40123 5.18886 6.5 5.4375 6.5H6.0625C6.31114 6.5 6.5496 6.40123 6.72541 6.22541C6.90123 6.0496 7 5.81114 7 5.5625C7 5.31386 6.90123 5.0754 6.72541 4.89959C6.5496 4.72377 6.31114 4.625 6.0625 4.625H5.4375ZM4.5 1.1875C4.5 0.93886 4.59877 0.700403 4.77459 0.524587C4.9504 0.348772 5.18886 0.25 5.4375 0.25H6.0625C6.31114 0.25 6.5496 0.348772 6.72541 0.524587C6.90123 0.700403 7 0.93886 7 1.1875C7 1.43614 6.90123 1.6746 6.72541 1.85041C6.5496 2.02623 6.31114 2.125 6.0625 2.125H5.4375C5.18886 2.125 4.9504 2.02623 4.77459 1.85041C4.59877 1.6746 4.5 1.43614 4.5 1.1875ZM9.8125 9C9.56386 9 9.3254 9.09877 9.14959 9.27459C8.97377 9.4504 8.875 9.68886 8.875 9.9375C8.875 10.1861 8.97377 10.4246 9.14959 10.6004C9.3254 10.7762 9.56386 10.875 9.8125 10.875H10.4375C10.6861 10.875 10.9246 10.7762 11.1004 10.6004C11.2762 10.4246 11.375 10.1861 11.375 9.9375C11.375 9.68886 11.2762 9.4504 11.1004 9.27459C10.9246 9.09877 10.6861 9 10.4375 9H9.8125ZM8.875 5.5625C8.875 5.31386 8.97377 5.0754 9.14959 4.89959C9.3254 4.72377 9.56386 4.625 9.8125 4.625H10.4375C10.6861 4.625 10.9246 4.72377 11.1004 4.89959C11.2762 5.0754 11.375 5.31386 11.375 5.5625C11.375 5.81114 11.2762 6.0496 11.1004 6.22541C10.9246 6.40123 10.6861 6.5 10.4375 6.5H9.8125C9.56386 6.5 9.3254 6.40123 9.14959 6.22541C8.97377 6.0496 8.875 5.81114 8.875 5.5625ZM9.8125 0.25C9.56386 0.25 9.3254 0.348772 9.14959 0.524587C8.97377 0.700403 8.875 0.93886 8.875 1.1875C8.875 1.43614 8.97377 1.6746 9.14959 1.85041C9.3254 2.02623 9.56386 2.125 9.8125 2.125H10.4375C10.6861 2.125 10.9246 2.02623 11.1004 1.85041C11.2762 1.6746 11.375 1.43614 11.375 1.1875C11.375 0.93886 11.2762 0.700403 11.1004 0.524587C10.9246 0.348772 10.6861 0.25 10.4375 0.25H9.8125Z" fill="#414A67"/>
</svg>
