<svg width="27" height="27" viewBox="0 0 27 27" fill="none" xmlns="http://www.w3.org/2000/svg">
<path fill-rule="evenodd" clip-rule="evenodd" d="M0.75 24C0.75 24.663 1.01339 25.2989 1.48223 25.7678C1.95107 26.2366 2.58696 26.5 3.25 26.5H7.9375C8.18614 26.5 8.4246 26.4012 8.60041 26.2254C8.77623 26.0496 8.875 25.8111 8.875 25.5625V22.75H12.625V25.5625C12.625 26.08 13.045 26.5 13.5625 26.5H18.25C18.365 26.5 18.4787 26.4925 18.59 26.4775C18.6581 26.4926 18.7277 26.5002 18.7975 26.5H23.875C24.538 26.5 25.1739 26.2366 25.6428 25.7678C26.1116 25.2989 26.375 24.663 26.375 24V14.4687C26.375 14.0806 26.2846 13.6979 26.1111 13.3507C25.9375 13.0036 25.6855 12.7016 25.375 12.4687L24.125 11.5312C24.0265 11.4574 23.9144 11.4036 23.7952 11.3731C23.6759 11.3425 23.5518 11.3358 23.4299 11.3532C23.308 11.3706 23.1908 11.4118 23.0849 11.4746C22.9789 11.5373 22.8864 11.6203 22.8125 11.7187C22.7386 11.8172 22.6849 11.9293 22.6543 12.0486C22.6238 12.1678 22.617 12.292 22.6344 12.4138C22.6518 12.5357 22.6931 12.653 22.7558 12.7589C22.8185 12.8648 22.9015 12.9574 23 13.0312L24.25 13.9687C24.3276 14.027 24.3906 14.1025 24.434 14.1892C24.4774 14.276 24.5 14.3717 24.5 14.4687V24C24.5 24.1658 24.4342 24.3247 24.3169 24.4419C24.1997 24.5592 24.0408 24.625 23.875 24.625H20.6712C20.7225 24.425 20.75 24.2162 20.75 24V2.75C20.75 2.08696 20.4866 1.45107 20.0178 0.982233C19.5489 0.513392 18.913 0.25 18.25 0.25H3.25C2.58696 0.25 1.95107 0.513392 1.48223 0.982233C1.01339 1.45107 0.75 2.08696 0.75 2.75V24ZM3.25 24.625C3.08424 24.625 2.92527 24.5592 2.80806 24.4419C2.69085 24.3247 2.625 24.1658 2.625 24V2.75C2.625 2.58424 2.69085 2.42527 2.80806 2.30806C2.92527 2.19085 3.08424 2.125 3.25 2.125H18.25C18.4158 2.125 18.5747 2.19085 18.6919 2.30806C18.8092 2.42527 18.875 2.58424 18.875 2.75V24C18.875 24.1658 18.8092 24.3247 18.6919 24.4419C18.5747 24.5592 18.4158 24.625 18.25 24.625H14.5V21.8125C14.5 21.5639 14.4012 21.3254 14.2254 21.1496C14.0496 20.9738 13.8111 20.875 13.5625 20.875H7.9375C7.68886 20.875 7.4504 20.9738 7.27459 21.1496C7.09877 21.3254 7 21.5639 7 21.8125V24.625H3.25Z" fill="#414A67"/>
</svg>
