<svg width="14" height="15" viewBox="0 0 14 15" fill="none" xmlns="http://www.w3.org/2000/svg">
<path d="M9.5 0.258789V3.67691L7.625 4.79004V2.89566L6.6875 3.48129L4.5 4.79004V2.89566L3.5625 3.48129L0.4375 5.35629L0.125 5.53191V14.0088H13.875V0.258789H9.5ZM10.75 1.50879H12.625V12.7588H1.375V6.21566L3.25 5.10254V6.99691L4.1875 6.41129L6.375 5.10254V6.99691L7.3125 6.41129L10.4375 4.53629L10.75 4.36066V1.50879ZM2.625 7.75879V9.00879H3.875V7.75879H2.625ZM5.125 7.75879V9.00879H6.375V7.75879H5.125ZM7.625 7.75879V9.00879H8.875V7.75879H7.625ZM10.125 7.75879V9.00879H11.375V7.75879H10.125ZM2.625 10.2588V11.5088H3.875V10.2588H2.625ZM5.125 10.2588V11.5088H6.375V10.2588H5.125ZM7.625 10.2588V11.5088H8.875V10.2588H7.625ZM10.125 10.2588V11.5088H11.375V10.2588H10.125Z" fill="#0062D7"/>
</svg>
