<svg width="24" height="24" viewBox="0 0 24 24" fill="none" xmlns="http://www.w3.org/2000/svg">
<path fill-rule="evenodd" clip-rule="evenodd" d="M10 11.8469L20 10.1803V14.4664C19.408 14.1684 18.7232 13.9998 18 13.9998C15.8271 13.9998 14 15.5224 14 17.4998C14 19.4772 15.8271 20.9998 18 20.9998C20.1729 20.9998 22 19.4772 22 17.4998V1.81934L8 4.15267V15.4664C7.40804 15.1684 6.72317 14.9998 6 14.9998C3.82708 14.9998 2 16.5224 2 18.4998C2 20.4772 3.82708 21.9998 6 21.9998C8.17292 21.9998 10 20.4772 10 18.4998V11.8469ZM8 18.4998C8 19.2838 7.14079 19.9998 6 19.9998C4.85921 19.9998 4 19.2838 4 18.4998C4 17.7158 4.85921 16.9998 6 16.9998C7.14079 16.9998 8 17.7158 8 18.4998ZM18 18.9998C19.1408 18.9998 20 18.2838 20 17.4998C20 16.7158 19.1408 15.9998 18 15.9998C16.8592 15.9998 16 16.7158 16 17.4998C16 18.2838 16.8592 18.9998 18 18.9998ZM10 9.81934V5.84692L20 4.18026V8.15267L10 9.81934Z" fill="black"/>
</svg>
