<svg width="24" height="24" viewBox="0 0 24 24" fill="none" xmlns="http://www.w3.org/2000/svg">
<path fill-rule="evenodd" clip-rule="evenodd" d="M9.19258 7.99977H20C21.1046 7.99977 22 8.8952 22 9.99977V19.9998C22 21.1043 21.1046 21.9998 20 21.9998H4C2.89543 21.9998 2 21.1043 2 19.9998V9.99977C2 8.97073 2.77716 8.1232 3.77657 8.01211L18.6286 2.07129L19.3714 3.92824L9.19258 7.99977ZM4 9.99977V19.9998H20V9.99977H4ZM19 14.9998H14V16.9998H19V14.9998ZM14 11.9998H19V13.9998H14V11.9998ZM5 14.9998C5 17.2089 6.79086 18.9998 9 18.9998C11.2091 18.9998 13 17.2089 13 14.9998C13 12.7906 11.2091 10.9998 9 10.9998C6.79086 10.9998 5 12.7906 5 14.9998ZM9 16.9998C10.1046 16.9998 11 16.1043 11 14.9998C11 13.8952 10.1046 12.9998 9 12.9998C7.89543 12.9998 7 13.8952 7 14.9998C7 16.1043 7.89543 16.9998 9 16.9998ZM8 14.9998C8 15.5521 8.44772 15.9998 9 15.9998C9.55228 15.9998 10 15.5521 10 14.9998C10 14.4475 9.55228 13.9998 9 13.9998C8.44772 13.9998 8 14.4475 8 14.9998Z" fill="black"/>
</svg>
