<svg width="24" height="24" viewBox="0 0 24 24" fill="none" xmlns="http://www.w3.org/2000/svg">
<path fill-rule="evenodd" clip-rule="evenodd" d="M14.2929 2.70718L16.5868 5.00108H8C5.23858 5.00108 3 7.23965 3 10.0011V13.0011H5V10.0011C5 8.34422 6.34315 7.00108 8 7.00108H16.5848L14.2929 9.29297L15.7071 10.7072L20.4142 6.00008L15.7071 1.29297L14.2929 2.70718ZM9.70711 21.293L7.41421 19.0001H16C18.7614 19.0001 21 16.7615 21 14.0001V11.0001H19V14.0001C19 15.6569 17.6569 17.0001 16 17.0001H7.41421L9.70711 14.7072L8.29289 13.293L3.58579 18.0001L8.29289 22.7072L9.70711 21.293Z" fill="black"/>
</svg>
