<svg width="24" height="24" viewBox="0 0 24 24" fill="none" xmlns="http://www.w3.org/2000/svg">
<path fill-rule="evenodd" clip-rule="evenodd" d="M17.5858 8.00004L17.0093 8.00003C14.9891 8.01884 14.1695 8.88241 12.849 11.7639C12.7006 12.0885 12.6217 12.261 12.5478 12.4206C10.7759 16.249 8.96371 17.939 5 18.0001H3V16.0001L4.98456 16.0002C7.99779 15.9537 9.24866 14.7871 10.7328 11.5805C10.8046 11.4254 10.8813 11.2577 11.0308 10.9307C12.6438 7.41101 13.9561 6.02837 17 6.00008H17.5858L16.2929 4.70718L17.7071 3.29297L21.4142 7.00008L17.7071 10.7072L16.2929 9.29297L17.5858 8.00004ZM17.5858 18.0001H17C15.067 17.9821 13.8323 17.418 12.7755 16.1072C13.1678 15.5431 13.5362 14.917 13.8909 14.2285C14.7313 15.5398 15.5624 15.9866 17.0093 16.0001L17.5858 16.0001L16.2929 14.7072L17.7071 13.293L21.4142 17.0001L17.7071 20.7072L16.2929 19.293L17.5858 18.0001ZM4.98456 7.99996C7.02213 8.03141 8.25385 8.57501 9.29676 9.91522C9.62455 9.21047 9.95039 8.57248 10.2864 7.99926C8.998 6.66607 7.39018 6.0369 5 6.00008H3V8.00008L4.98456 7.99996Z" fill="black"/>
</svg>
