<svg width="24" height="24" viewBox="0 0 24 24" fill="none" xmlns="http://www.w3.org/2000/svg">
<path fill-rule="evenodd" clip-rule="evenodd" d="M8 8.6179L12 6.6179V17.3818L8 15.3818V8.6179ZM6.76393 6.99987L14 3.38184V20.6179L6.76393 16.9999H3C1.89543 16.9999 1 16.1044 1 14.9999V8.99987C1 7.8953 1.89543 6.99987 3 6.99987H6.76393ZM6 8.99987H3V14.9999H6V8.99987ZM19.6791 3.45659C21.7136 5.48062 23 8.56797 23 11.9999C23 15.4318 21.7136 18.5191 19.6791 20.5431L18.1031 19.2824C19.8488 17.6535 21 15.012 21 11.9999C21 8.9877 19.8488 6.34623 18.1031 4.71735L19.6791 3.45659ZM19 11.9999C19 9.5892 18.0649 7.41225 16.5748 5.94007L14.9973 7.20205C16.2072 8.29158 17 10.0255 17 11.9999C17 13.9742 16.2072 15.7082 14.9973 16.7977L16.5748 18.0597C18.0649 16.5875 19 14.4105 19 11.9999Z" fill="black"/>
</svg>
