<svg width="24" height="24" viewBox="0 0 24 24" fill="none" xmlns="http://www.w3.org/2000/svg">
<path fill-rule="evenodd" clip-rule="evenodd" d="M8 8.6179L12 6.6179V17.3818L8 15.3818V8.6179ZM6.76393 6.99987L14 3.38184V20.6179L6.76393 16.9999H3C1.89543 16.9999 1 16.1044 1 14.9999V8.99987C1 7.8953 1.89543 6.99987 3 6.99987H6.76393ZM6 8.99987H3V14.9999H6V8.99987ZM20.4142 11.9999L22.7071 14.2928L21.2929 15.707L19 13.4141L16.7071 15.707L15.2929 14.2928L17.5858 11.9999L15.2929 9.70698L16.7071 8.29276L19 10.5857L21.2929 8.29276L22.7071 9.70698L20.4142 11.9999Z" fill="black"/>
</svg>
