<svg width="24" height="24" viewBox="0 0 24 24" fill="none" xmlns="http://www.w3.org/2000/svg">
<path fill-rule="evenodd" clip-rule="evenodd" d="M2.70711 1.29297L1.29289 2.70718L5.58579 7.00008H3C1.89543 7.00008 1 7.89551 1 9.00008V15.0001C1 16.1046 1.89543 17.0001 3 17.0001H6.76393L14 20.6181V15.4143L21.2929 22.7072L22.7071 21.293L2.70711 1.29297ZM12 13.4143L8 9.41429V15.382L12 17.382V13.4143ZM12 6.61811V7.78586L14 9.78586V3.38204L9.73079 5.51665L11.2215 7.00736L12 6.61811ZM16.9616 12.7475L18.6654 14.4512C18.8828 13.6774 19 12.8534 19 12.0001C19 9.58941 18.0649 7.41246 16.5748 5.94027L14.9973 7.20226C16.2072 8.29179 17 10.0257 17 12.0001C17 12.2535 16.9869 12.5029 16.9616 12.7475ZM20.2542 16.0401L21.7717 17.5576C22.5539 15.9224 23 14.021 23 12.0001C23 8.56818 21.7136 5.48082 19.6791 3.4568L18.1031 4.71756C19.8488 6.34644 21 8.9879 21 12.0001C21 13.4578 20.7304 14.8287 20.2542 16.0401ZM6 9.00008H3V15.0001H6V9.00008Z" fill="black"/>
</svg>
