<svg width="24" height="24" viewBox="0 0 24 24" fill="none" xmlns="http://www.w3.org/2000/svg">
<path fill-rule="evenodd" clip-rule="evenodd" d="M12 6.6179L8 8.6179V15.3818L12 17.3818V6.6179ZM14 3.38184L6.76393 6.99987H3C1.89543 6.99987 1 7.8953 1 8.99987V14.9999C1 16.1044 1.89543 16.9999 3 16.9999H6.76393L14 20.6179V3.38184ZM3 8.99987H6V14.9999H3V8.99987ZM19 11.9999C19 9.5892 18.0649 7.41225 16.5748 5.94007L14.9973 7.20205C16.2072 8.29158 17 10.0255 17 11.9999C17 13.9742 16.2072 15.7082 14.9973 16.7977L16.5748 18.0597C18.0649 16.5875 19 14.4105 19 11.9999Z" fill="black"/>
</svg>
