<svg width="24" height="24" viewBox="0 0 24 24" fill="none" xmlns="http://www.w3.org/2000/svg">
<path fill-rule="evenodd" clip-rule="evenodd" d="M4.58579 6.00008L1.29289 2.70718L2.70711 1.29297L22.7071 21.293L21.2929 22.7072L16.5858 18.0001H3C1.89543 18.0001 1 17.1046 1 16.0001V8.00008C1 6.89551 1.89543 6.00008 3 6.00008H4.58579ZM14.5858 16.0001L6.58579 8.00008H3V16.0001H14.5858V16.0001ZM10.2071 6.00008H19C20.1046 6.00008 21 6.89551 21 8.00008V9.00008C22.1046 9.00008 23 9.89551 23 11.0001V13.0001C23 14.1046 22.1046 15.0001 21 15.0001V16.0001C21 16.2373 20.9587 16.4648 20.8829 16.6759L19 14.793V8.00008H12.2071L10.2071 6.00008Z" fill="black"/>
</svg>
