<svg width="24" height="24" viewBox="0 0 24 24" fill="none" xmlns="http://www.w3.org/2000/svg">
<path fill-rule="evenodd" clip-rule="evenodd" d="M19 11.9996C19 8.42047 18.146 5.12995 16.7143 2.63965L14.9171 3.53552C16.1877 5.69447 16.994 8.67505 16.994 11.9996C16.994 15.3242 16.1877 18.3048 14.9171 20.4638L16.7143 21.3596C18.146 18.8693 19 15.5788 19 11.9996ZM14.988 11.9996C14.988 9.16869 14.253 6.54978 13.011 4.48569L11.2114 5.38275C12.3071 7.13778 12.982 9.44754 12.982 11.9996C12.982 14.5518 12.3071 16.8615 11.2114 18.6165L13.011 19.5136C14.253 17.4495 14.988 14.8306 14.988 11.9996ZM9.36873 6.30126C10.3833 7.9209 10.976 9.88667 10.976 11.9996C10.976 14.1126 10.3833 16.0784 9.36873 17.698L7.56526 16.799C8.44596 15.4652 8.97006 13.8056 8.97006 11.9996C8.97006 10.1937 8.44596 8.53406 7.56526 7.20025L9.36873 6.30126ZM6.96407 11.9996C6.96407 10.5694 6.54372 9.23217 5.8086 8.0759L4 8.97745C4.60973 9.86815 4.95808 10.9024 4.95808 11.9996C4.95808 13.0969 4.60973 14.1311 4 15.0218L5.8086 15.9234C6.54372 14.7671 6.96407 13.4299 6.96407 11.9996Z" fill="black"/>
</svg>
