<svg width="60" height="60" viewBox="0 0 60 60" fill="none" xmlns="http://www.w3.org/2000/svg">
<path d="M55.784 12.2836C55.5219 12.1522 55.2298 12.0923 54.9372 12.1098C54.6446 12.1274 54.3618 12.2218 54.1173 12.3836L38.334 22.9503V13.7669C38.3345 13.45 38.2446 13.1394 38.0749 12.8717C37.9051 12.604 37.6626 12.3903 37.3757 12.2556C37.0887 12.1209 36.7693 12.0708 36.4549 12.1111C36.1406 12.1515 35.8442 12.2807 35.6007 12.4836L22.4673 23.3336H16.6673V7.70027C16.6767 7.315 16.5523 6.93837 16.3153 6.63449C16.0783 6.33062 15.7433 6.11827 15.3673 6.0336L8.70065 4.5336C8.45468 4.47841 8.1994 4.47973 7.95401 4.53747C7.70863 4.59521 7.47954 4.70785 7.28398 4.86694C7.08389 5.02903 6.92408 5.23528 6.81709 5.4695C6.71009 5.70373 6.65883 5.95957 6.66732 6.21693V23.3336H5.00065C4.55862 23.3336 4.1347 23.5092 3.82214 23.8218C3.50958 24.1343 3.33398 24.5582 3.33398 25.0003V51.6669C3.33398 52.109 3.50958 52.5329 3.82214 52.8454C4.1347 53.158 4.55862 53.3336 5.00065 53.3336H55.0006C55.4427 53.3336 55.8666 53.158 56.1792 52.8454C56.4917 52.5329 56.6673 52.109 56.6673 51.6669V13.7669C56.6695 13.4626 56.5884 13.1635 56.4327 12.902C56.277 12.6405 56.0526 12.4266 55.784 12.2836ZM10.0007 8.3336L13.334 9.06694V23.3336H10.0007V8.3336ZM53.334 50.0003H6.66732V26.6669H23.0506C23.4401 26.6677 23.8175 26.5321 24.1173 26.2836L35.0007 17.2836V26.0836C35.0002 26.3864 35.0822 26.6836 35.2379 26.9432C35.3937 27.2029 35.6172 27.4153 35.8845 27.5575C36.1518 27.6997 36.4528 27.7664 36.7551 27.7505C37.0575 27.7345 37.3498 27.6365 37.6007 27.4669L53.334 16.9003V50.0003Z" fill="#0062D7"/>
<path d="M10 29.9834H23.3333V33.3167H10V29.9834Z" fill="#0062D7"/>
<path d="M10 36.6504H23.3333V39.9837H10V36.6504Z" fill="#0062D7"/>
<path d="M10 43.3174H23.3333V46.6507H10V43.3174Z" fill="#0062D7"/>
<path d="M31.668 31.6504H35.0013V36.6504H31.668V31.6504Z" fill="#0062D7"/>
<path d="M31.668 41.6504H35.0013V46.6504H31.668V41.6504Z" fill="#0062D7"/>
<path d="M38.334 31.6504H41.6673V36.6504H38.334V31.6504Z" fill="#0062D7"/>
<path d="M38.334 41.6504H41.6673V46.6504H38.334V41.6504Z" fill="#0062D7"/>
<path d="M45 31.6504H48.3333V36.6504H45V31.6504Z" fill="#0062D7"/>
<path d="M45 41.6504H48.3333V46.6504H45V41.6504Z" fill="#0062D7"/>
</svg>
