<svg width="24" height="24" viewBox="0 0 24 24" fill="none" xmlns="http://www.w3.org/2000/svg">
<path fill-rule="evenodd" clip-rule="evenodd" d="M2.70711 1.29297L1.29289 2.70718L4.58579 6.00008H4C2.34315 6.00008 1 7.34322 1 9.00008V18.0001C1 19.6569 2.34315 21.0001 4 21.0001H19.5858L21.2929 22.7072L22.7071 21.293L2.70711 1.29297ZM17.5858 19.0001L15.3226 16.7369C14.4216 17.5387 13.2484 18.0001 12 18.0001C9.23858 18.0001 7 15.7615 7 13.0001C7 11.7509 7.46197 10.5777 8.2632 9.67749L6.58579 8.00008H4C3.44772 8.00008 3 8.44779 3 9.00008V18.0001C3 18.5524 3.44772 19.0001 4 19.0001H17.5858ZM9.6814 11.0957C9.24743 11.6231 9 12.2905 9 13.0001C9 14.6569 10.3431 16.0001 12 16.0001C12.7093 16.0001 13.3766 15.753 13.9044 15.3187L9.6814 11.0957ZM20 6.00008C21.6569 6.00008 23 7.34322 23 9.00008V18.0001H21V9.00008C21 8.44779 20.5523 8.00008 20 8.00008H17C16.3357 8.00008 15.8876 7.63648 15.4394 7.01333C15.3363 6.86995 15.2341 6.71339 15.1111 6.51417C15.069 6.44594 14.9597 6.26561 14.8847 6.14178L14.8846 6.14162L14.8118 6.02166C14.3595 5.2818 14.0867 5.00008 14 5.00008H10C10.0301 5.00008 10.02 5.00944 9.95302 5.07181C9.93406 5.08947 9.91053 5.11138 9.88207 5.13852C9.81348 5.20391 9.51009 5.51497 9.52688 5.49805C9.52013 5.50484 8.09622 4.10037 8.09622 4.10037C8.06517 4.13168 8.40245 3.78588 8.50189 3.69107C8.96794 3.24668 9.40746 3.00008 10 3.00008H14C15.0866 3.00008 15.6892 3.62246 16.5182 4.97849L16.6021 5.11674L16.6023 5.11715L16.6035 5.11904C16.6778 5.24158 16.7767 5.40478 16.8131 5.4638C16.9134 5.62638 16.9921 5.74696 17.063 5.84545C17.1097 5.9104 17.1505 5.96202 17.1838 6.00008H20ZM19 11.0001C19.5523 11.0001 20 10.5524 20 10.0001C20 9.44779 19.5523 9.00008 19 9.00008C18.4477 9.00008 18 9.44779 18 10.0001C18 10.5524 18.4477 11.0001 19 11.0001Z" fill="black"/>
</svg>
