<svg width="24" height="24" viewBox="0 0 24 24" fill="none" xmlns="http://www.w3.org/2000/svg">
<path fill-rule="evenodd" clip-rule="evenodd" d="M17.8065 1.44141L19.4655 2.55835L13.2055 11.8567L15.5552 15.3468C16.0033 15.1731 16.4905 15.0779 17 15.0779C19.2091 15.0779 21 16.8687 21 19.0779C21 21.287 19.2091 23.0779 17 23.0779C14.7909 23.0779 13 21.287 13 19.0779C13 18.1021 13.3494 17.208 13.9298 16.5137L12 13.6473L10.0702 16.5137C10.6506 17.208 11 18.1021 11 19.0779C11 21.287 9.20914 23.0779 7 23.0779C4.79086 23.0779 3 21.287 3 19.0779C3 16.8687 4.79086 15.0779 7 15.0779C7.50946 15.0779 7.99667 15.1731 8.44481 15.3468L10.7945 11.8567L4.53448 2.55835L6.19352 1.44141L12 10.0661L17.8065 1.44141ZM9 19.0779C9 20.1824 8.10457 21.0779 7 21.0779C5.89543 21.0779 5 20.1824 5 19.0779C5 17.9733 5.89543 17.0779 7 17.0779C8.10457 17.0779 9 17.9733 9 19.0779ZM19 19.0779C19 20.1824 18.1046 21.0779 17 21.0779C15.8954 21.0779 15 20.1824 15 19.0779C15 17.9733 15.8954 17.0779 17 17.0779C18.1046 17.0779 19 17.9733 19 19.0779Z" fill="black"/>
</svg>
