<svg width="24" height="24" viewBox="0 0 24 24" fill="none" xmlns="http://www.w3.org/2000/svg">
<path fill-rule="evenodd" clip-rule="evenodd" d="M12.6577 1.24717C18.1887 6.0767 21 10.2937 21 14.0004C21 19.2498 16.9029 23.0004 12 23.0004C7.09705 23.0004 3 19.2498 3 14.0004C3 10.2937 5.81131 6.0767 11.3423 1.24717L12 0.672852L12.6577 1.24717ZM5 14.0004C5 18.1038 8.16411 21.0004 12 21.0004C15.8359 21.0004 19 18.1038 19 14.0004C19 11.1512 16.6934 7.56688 12 3.33702C7.30661 7.56688 5 11.1512 5 14.0004ZM12 18.0004V20.0004C15.3137 20.0004 18 17.3141 18 14.0004H16C16 16.2096 14.2091 18.0004 12 18.0004Z" fill="black"/>
</svg>
