<svg width="24" height="24" viewBox="0 0 24 24" fill="none" xmlns="http://www.w3.org/2000/svg">
<path fill-rule="evenodd" clip-rule="evenodd" d="M2.7071 1.29297L1.29289 2.70718L5.35771 6.772C4.97905 7.08582 4.60431 7.42283 4.2337 7.78123C3.40448 8.58312 2.6543 9.43923 1.9939 10.2957C1.5954 10.8125 1.31247 11.2191 1.15756 11.4613L0.812958 12.0001L1.15756 12.5389C1.31247 12.7811 1.5954 13.1876 1.9939 13.7045C2.6543 14.5609 3.40448 15.417 4.2337 16.2189C6.66431 18.5695 9.27244 20.0001 12 20.0001C13.7209 20.0001 15.3943 19.4306 17.0055 18.4198L21.2929 22.7072L22.7071 21.293L2.7071 1.29297ZM15.5446 16.9589L14.032 15.4463C13.4364 15.7981 12.7418 16.0001 12 16.0001C9.79085 16.0001 7.99999 14.2092 7.99999 12.0001C7.99999 11.2583 8.20192 10.5636 8.55381 9.96811L6.77971 8.19401C6.39232 8.50642 6.00677 8.8488 5.62403 9.21893C4.86983 9.94828 4.18238 10.7328 3.57774 11.517C3.44715 11.6863 3.32648 11.8479 3.21616 12.0001C3.32648 12.1523 3.44715 12.3138 3.57774 12.4832C4.18238 13.2674 4.86983 14.0519 5.62403 14.7812C7.71748 16.8057 9.89492 18.0001 12 18.0001C13.1682 18.0001 14.3586 17.6323 15.5446 16.9589ZM10.0677 11.482C10.0236 11.6473 9.99999 11.8209 9.99999 12.0001C9.99999 13.1046 10.8954 14.0001 12 14.0001C12.1792 14.0001 12.3528 13.9765 12.518 13.9323L10.0677 11.482ZM20.0981 15.891L18.6838 14.4768C19.318 13.8357 19.9009 13.1593 20.4222 12.4832C20.5528 12.3138 20.6735 12.1523 20.7838 12.0001C20.6735 11.8479 20.5528 11.6863 20.4222 11.517C19.8176 10.7328 19.1302 9.94828 18.376 9.21893C16.2825 7.19445 14.1051 6.00008 12 6.00008C11.4777 6.00008 10.9509 6.0736 10.4221 6.21509L8.84014 4.63312C9.87259 4.22145 10.9271 4.00008 12 4.00008C14.7275 4.00008 17.3357 5.4307 19.7663 7.78123C20.5955 8.58312 21.3457 9.43923 22.0061 10.2957C22.4046 10.8125 22.6875 11.2191 22.8424 11.4613L23.187 12.0001L22.8424 12.5389C22.6875 12.7811 22.4046 13.1876 22.0061 13.7045C21.4349 14.4452 20.7966 15.1857 20.0981 15.891Z" fill="black"/>
</svg>
