<svg width="24" height="24" viewBox="0 0 24 24" fill="none" xmlns="http://www.w3.org/2000/svg">
<path fill-rule="evenodd" clip-rule="evenodd" d="M11.1758 11.5302C11.7222 10.7633 11.6613 9.95554 11.2824 8.50259C10.533 5.62907 10.8314 4.05408 13.4147 2.18941L14.6756 1.2793L14.9806 2.80413C15.3047 4.42466 15.8369 5.42695 17.2036 7.35489C17.2579 7.43147 17.2579 7.43147 17.3124 7.50839C19.281 10.2857 20 11.9599 20 15.0002C20 18.6886 16.2714 22.0002 12 22.0002C7.72841 22.0002 4 18.6891 4 15.0002C4 14.9313 4.00007 14.9334 3.98839 14.6287C3.89803 12.2721 4.33381 10.4276 6.09706 8.43611C6.46961 8.01533 6.89308 7.61092 7.36962 7.22395L8.42162 6.36971L8.92766 7.62682C9.30158 8.55572 9.73969 9.28591 10.2346 9.82176C10.6538 10.2756 10.9647 10.8463 11.1758 11.5302ZM7.59448 9.7619C6.23712 11.295 5.91441 12.6609 5.98692 14.5521C6.00042 14.9041 6 14.8918 6 15.0002C6 17.5281 8.7836 20.0002 12 20.0002C15.2161 20.0002 18 17.5277 18 15.0002C18 12.4585 17.4317 11.1353 15.6807 8.66494C15.6265 8.58843 15.6265 8.58843 15.5719 8.5115C14.5085 7.01136 13.8747 5.96783 13.4553 4.80077C12.7705 5.62142 12.8107 6.43764 13.2176 7.9979C13.967 10.8714 13.6686 12.4464 11.0853 14.3111L9.61227 15.3743L9.50185 13.561C9.43129 12.4025 9.16906 11.6158 8.76539 11.1787C8.36656 10.7469 8.00647 10.2414 7.68355 9.66304C7.65343 9.6959 7.62374 9.72886 7.59448 9.7619Z" fill="black"/>
</svg>
