<svg width="24" height="24" viewBox="0 0 24 24" fill="none" xmlns="http://www.w3.org/2000/svg">
<path fill-rule="evenodd" clip-rule="evenodd" d="M2.41421 1.29297L0.999994 2.70718L2.43895 4.14614C1.31026 5.41488 0.64328 7.15588 0.64328 9.11995C0.64328 12.1672 2.39888 15.104 5.6663 17.9415C7.37949 19.4293 9.56674 20.9015 11.1317 21.684L12 22.1181L12.8683 21.684C14.0985 21.0688 15.7134 20.0274 17.1801 18.8873L21 22.7072L22.4142 21.293L2.41421 1.29297ZM15.7541 17.4613L3.85662 5.56381C3.09252 6.46452 2.64328 7.69915 2.64328 9.11995C2.64328 11.4906 4.10619 13.9378 6.97767 16.4314C8.55588 17.802 10.588 19.1717 12 19.882C13.0546 19.3515 14.4551 18.4531 15.7541 17.4613ZM21.3567 9.11995C21.3567 10.9688 20.4669 12.8642 18.7131 14.7919L20.1287 16.2075C22.2395 13.9115 23.3567 11.5509 23.3567 9.11995C23.3567 5.13311 20.5229 2.01532 16.7154 2.00009C15.2257 2.00007 14.269 2.17079 13.17 2.69021C12.7493 2.88904 12.3552 3.13 11.9899 3.41244C11.6382 3.14542 11.2592 2.91514 10.8551 2.72219C9.7345 2.18701 8.72838 2.00008 7.2924 2.00008C6.85959 2.00008 6.43991 2.0393 6.0359 2.11466L7.93828 4.01705C8.7423 4.06374 9.33392 4.21207 9.99325 4.52694C10.4792 4.75903 10.9081 5.06501 11.2785 5.44651L12.0021 6.19186L12.7193 5.44038C13.098 5.04365 13.5332 4.73068 14.0246 4.49844C14.8247 4.12031 15.4984 4.00008 16.7113 4.00008C19.3706 4.01072 21.3567 6.19585 21.3567 9.11995Z" fill="black"/>
</svg>
