<svg width="24" height="24" viewBox="0 0 24 24" fill="none" xmlns="http://www.w3.org/2000/svg">
<path fill-rule="evenodd" clip-rule="evenodd" d="M1.29289 2.70718L5.60144 7.01573C3.02635 7.21881 1 9.3728 1 12.0001C1 14.7615 3.23858 17.0001 6 17.0001H10V15.0001H6C4.34315 15.0001 3 13.6569 3 12.0001C3 10.3432 4.34315 9.00008 6 9.00008H7.58579L9.58579 11.0001H7V13.0001H11.5858L21.2929 22.7072L22.7071 21.293L2.70711 1.29297L1.29289 2.70718ZM19.032 14.8179L20.5286 16.3145C22.0073 15.446 23 13.8389 23 12.0001C23 9.23865 20.7614 7.00008 18 7.00008H14V9.00008H18C19.6569 9.00008 21 10.3432 21 12.0001C21 13.2943 20.1804 14.3971 19.032 14.8179Z" fill="black"/>
</svg>
