<svg width="24" height="24" viewBox="0 0 24 24" fill="none" xmlns="http://www.w3.org/2000/svg">
<path fill-rule="evenodd" clip-rule="evenodd" d="M12.8698 20.1378L15.774 17.1883L21.2929 22.7072L22.7071 21.293L2.70711 1.29297L1.29289 2.70718L6.71791 8.1322L3.85825 11.0352C1.38115 13.562 1.38115 17.6127 3.85654 20.1379C6.31029 22.6409 10.4559 22.6008 12.8698 20.1378ZM8.44995 14.3627L10.682 12.0963L11.8149 13.2292L9.551 15.529C9.25337 15.8364 8.7508 15.8378 8.44995 15.5307C8.13291 15.2071 8.13291 14.6863 8.44995 14.3627ZM13.2292 14.6434L10.9821 16.9261C9.9074 18.0361 8.10955 18.0411 7.02134 16.9304C5.94245 15.8292 5.94245 14.0643 7.02315 12.9612L9.26772 10.682L8.13217 9.54646L5.28475 12.437C3.57175 14.1844 3.57175 16.9904 5.28475 18.7378C6.94816 20.4346 9.80565 20.407 11.4431 18.7362L14.3597 15.774L13.2292 14.6434ZM12.0604 7.84624L13.4746 9.2605L14.7681 7.94701L13.3431 6.54367L12.0604 7.84624ZM14.607 10.3929L16.5024 8.46741C17.5172 7.43178 17.5172 5.76856 16.5024 4.73293C15.5342 3.74484 13.821 3.76682 12.872 4.73482L10.9252 6.7111L9.51099 5.29685L11.4455 3.33301C13.169 1.57494 16.1703 1.53643 17.9309 3.33315C19.7077 5.14641 19.7077 8.05393 17.9293 9.86882L16.0212 11.8071L14.607 10.3929ZM20.2921 9.74898L17.1521 12.938L18.5664 14.3522L21.7172 11.1522L20.2921 9.74898Z" fill="black"/>
</svg>
