<svg width="24" height="24" viewBox="0 0 24 24" fill="none" xmlns="http://www.w3.org/2000/svg">
<path fill-rule="evenodd" clip-rule="evenodd" d="M6.85131 8.2653L1.2929 2.70689L2.70712 1.29268L22.7071 21.2927L21.2929 22.7069L18.7303 20.1443L19.206 22.918L12 19.1296L4.79403 22.918L6.17025 14.894L0.340485 9.21138L6.85131 8.2653ZM16.281 17.695L16.5497 19.2619L12 16.87L7.45029 19.2619L8.31921 14.1958L4.63841 10.6079L8.6159 10.0299L16.281 17.695ZM19.3616 10.6079L17.0629 12.8485L18.4773 14.2628L23.6595 9.21138L15.603 8.04069L12 0.740234L9.67191 5.45748L11.1652 6.95079L12 5.25934L14.2749 9.86871L19.3616 10.6079Z" fill="black"/>
</svg>
