<svg width="24" height="24" viewBox="0 0 24 24" fill="none" xmlns="http://www.w3.org/2000/svg">
<path fill-rule="evenodd" clip-rule="evenodd" d="M16.137 15.5582C16.0609 15.3577 15.9826 15.1512 15.9548 15.076L15.927 15.0003H19C20.8696 15.0003 22 13.6828 22 12.0003C22 6.05672 20.7551 2.00029 18 2.00029C18 2.00029 11.0231 2.00052 10.9989 2.00001C10.3408 1.9882 9.50544 2.08074 8.66312 2.38211C8.29505 2.51381 7.95642 2.67766 7.65294 2.874C7.29284 2.34653 6.68686 2.00029 6 2.00029H4C2.89543 2.00029 2 2.89572 2 4.00029V13.0003C2 14.1049 2.89543 15.0003 4 15.0003H6C6.19836 15.0003 6.38997 14.9714 6.57086 14.9176C7.26776 15.9324 9.03061 17.9468 10.447 19.5653L10.447 19.5653C11.215 20.4429 11.8811 21.2041 12.2203 21.6264L12.5205 22.0003H13.0077C13.6148 22.0004 14.1423 21.9543 14.7483 21.7778C16.0919 21.3866 17 20.4723 17 19.0003C17 18.4802 16.9079 17.9257 16.7382 17.3102C16.626 16.9029 16.4872 16.4917 16.2971 15.9814C16.2699 15.9084 16.2043 15.7356 16.137 15.5582ZM8 13.0003V6.00029C8 5.09806 8.45197 4.58182 9.33688 4.26521C9.91062 4.05993 10.5254 3.99184 10.9656 3.9997L16.5338 4.00028L18 4.00029C19.0151 4.00029 20 7.20955 20 12.0003C20 12.6404 19.6912 13.0003 19 13.0003H15C13.8055 13.0003 13.5555 13.9239 13.8047 14.924C13.8633 15.1592 13.9489 15.4181 14.079 15.7697C14.1101 15.8541 14.1944 16.0762 14.273 16.2834L14.2732 16.2837L14.2733 16.284L14.2733 16.284C14.3378 16.4542 14.3986 16.6143 14.4229 16.6796C14.5944 17.1399 14.7161 17.5007 14.8101 17.8417C14.9359 18.298 15 18.6837 15 19.0003C15 19.4513 14.7622 19.6907 14.1891 19.8576C13.9484 19.9277 13.7114 19.9663 13.46 19.9852C12.9338 19.3562 12.1803 18.4965 11.4047 17.6116C9.90194 15.8972 8.31645 14.0883 8.14171 13.6803C8.04443 13.4532 8 13.2405 8 13.0003ZM4 13.0003V4.00029H6V13.0003H4Z" fill="black"/>
</svg>
