<svg width="24" height="24" viewBox="0 0 24 24" fill="none" xmlns="http://www.w3.org/2000/svg">
<path fill-rule="evenodd" clip-rule="evenodd" d="M1.70711 0.292969L0.292892 1.70718L3.58579 5.00008H3C1.89543 5.00008 0.999999 5.89551 0.999999 7.00008V17.0001C0.999999 18.1046 1.89543 19.0001 3 19.0001H15C15.7021 19.0001 16.3198 18.6383 16.6766 18.0909L22.2929 23.7072L23.7071 22.293L1.70711 0.292969ZM15 16.4143L5.58579 7.00008H3V17.0001H15V16.4143ZM17 8.38204L23 5.38204V18.3702L21 16.3702V8.61811L17 10.6181V13.0009L15 11.0009V7.00008H10.9992L8.99921 5.00008H15C16.1046 5.00008 17 5.89551 17 7.00008V8.38204Z" fill="black"/>
</svg>
