<svg width="24" height="24" viewBox="0 0 24 24" fill="none" xmlns="http://www.w3.org/2000/svg">
<path fill-rule="evenodd" clip-rule="evenodd" d="M17.1056 3.55292L14.382 9.00013H9.61803L6.89443 3.55292C6.48944 2.74294 5.30239 2.84539 5.04217 3.71279L2.04217 13.7128C1.92353 14.1083 2.06014 14.536 2.38606 14.7895L11.3861 21.7895C11.7472 22.0703 12.2528 22.0703 12.6139 21.7895L21.6139 14.7895C21.9399 14.536 22.0765 14.1083 21.9578 13.7128L18.9578 3.71279C18.6976 2.84539 17.5106 2.74294 17.1056 3.55292ZM15.8944 10.4473L17.7667 6.70271L19.8453 13.6313L12 19.7333L4.15467 13.6313L6.23326 6.70271L8.10557 10.4473C8.27496 10.7861 8.62123 11.0001 9 11.0001H15C15.3788 11.0001 15.725 10.7861 15.8944 10.4473Z" fill="black"/>
</svg>
